<?xml version="1.0" encoding="UTF-8" standalone="no"?>
<!-- Created with Inkscape (http://www.inkscape.org/) -->

<svg
   width="210mm"
   height="297mm"
   viewBox="0 0 210 297"
   version="1.1"
   id="svg1"
   inkscape:version="1.4 (86a8ad7, 2024-10-11)"
   sodipodi:docname="T.svg"
   xmlns:inkscape="http://www.inkscape.org/namespaces/inkscape"
   xmlns:sodipodi="http://sodipodi.sourceforge.net/DTD/sodipodi-0.dtd"
   xmlns="http://www.w3.org/2000/svg"
   xmlns:svg="http://www.w3.org/2000/svg">
  <sodipodi:namedview
     id="namedview1"
     pagecolor="#ffffff"
     bordercolor="#000000"
     borderopacity="0.25"
     inkscape:showpageshadow="2"
     inkscape:pageopacity="0.0"
     inkscape:pagecheckerboard="0"
     inkscape:deskcolor="#d1d1d1"
     inkscape:document-units="mm"
     inkscape:zoom="0.70348453"
     inkscape:cx="358.21683"
     inkscape:cy="737.7561"
     inkscape:window-width="1920"
     inkscape:window-height="986"
     inkscape:window-x="-11"
     inkscape:window-y="-11"
     inkscape:window-maximized="1"
     inkscape:current-layer="layer1" />
  <defs
     id="defs1">
    <rect
       x="174.31363"
       y="317.07049"
       width="449.30841"
       height="569.52471"
       id="rect1" />
  </defs>
  <g
     inkscape:label="Layer 1"
     inkscape:groupmode="layer"
     id="layer1">
    <text
       xml:space="preserve"
       transform="matrix(0.79082687,0,0,0.73646002,-188.44362,-241.2755)"
       id="text1"
       style="font-size:400px;font-family:Rockwell;-inkscape-font-specification:Rockwell;text-align:start;writing-mode:lr-tb;direction:ltr;white-space:pre;shape-inside:url(#rect1);fill:#050000;fill-opacity:1"><tspan
         x="174.31445"
         y="669.79031"
         id="tspan1"> T</tspan></text>
    <path
       style="fill:#000000;fill-opacity:1;fill-rule:nonzero;stroke:none;stroke-width:0.763159"
       id="path1"
       d="m 83.632599,235.94525 c 1.95582,-0.91999 3.63225,-2.26149 5.14502,-3.7217 0.69994,-0.67081 1.42286,-1.32017 2.14613,-1.969 0.30359,-0.27417 0.80915,-0.52496 1.45231,-0.96466 0.88192,-0.55809 1.52486,-1.36532 2.33835,-1.99333 0.35165,-0.25747 0.69985,-0.48778 0.98642,-0.8297 0.30155,-0.35982 1.09933,-0.80542 0.7866,-1.15686 -5.38154,-6.04771 -4.11548,-6.58127 -6.93843,-4.97059 -1.51434,0.98524 -2.69143,2.31891 -3.90827,3.59444 -1.26547,1.27708 -2.23413,2.84404 -3.76302,3.87356 -1.19506,0.8516 -2.52055,1.56147 -3.95549,1.99419 -0.84771,0.36436 -1.74874,0.45254 -2.65172,0.60802 -4.56322,0.89235 -2.38838,-0.0958 2.03589,7.67823 -0.0665,0.0498 -0.28332,0.16395 -0.19957,0.1492 0.13277,-0.025 0.2384,-0.11886 0.35805,-0.17731 1.06393,-0.52073 2.0508,-1.14181 3.03508,-1.78181 1.77354,-1.21415 3.39521,-2.60939 4.9281,-4.07687 1.06992,-1.03876 2.20031,-2.01787 3.32998,-2.99807 0.99489,-0.82586 1.75565,-1.833 2.48692,-2.85938 0.38667,-0.48616 0.78871,-0.98799 1.30295,-1.36485 0.38151,-0.28213 -0.0697,0.0479 -0.0399,0.0443 0.0991,-0.0111 0.34045,-0.19345 0.25011,-0.15365 -0.26694,0.11719 -0.4799,0.26165 -0.76038,0.35612 -0.0713,0.0195 -0.14201,0.039 -0.21407,0.0546 -0.16706,0.0362 -0.35845,0.0643 -0.52834,0.0757 -0.12186,0.008 -0.45863,0.0866 -0.36628,0.0111 4.72286,-3.80904 4.99098,-4.94292 4.2735,-2.79597 0.58333,-0.91131 1.03511,-1.90464 1.65913,-2.79235 0.56484,-0.85656 1.07194,-1.74095 1.54697,-2.64288 2.791111,-5.30179 -5.26023,-8.97764 -8.05134,-3.67585 v 0 c -0.35468,0.67402 -0.72892,1.3352 -1.15443,1.97593 -0.68521,1.07348 -1.30673,2.18169 -1.95226,3.2762 -1.16354,2.52726 -1.1089,1.85889 3.7793,-1.69496 0.0926,-0.0674 -0.53045,-0.0139 -1.14925,0.11022 -0.12975,0.025 -0.25753,0.0601 -0.3863,0.0902 -1.10463,0.33618 -2.10546,0.8727 -2.96623,1.60578 -1.00736,0.88462 -1.96003,1.82546 -2.71961,2.90973 -0.47253,0.66567 -0.45674,0.76971 -1.13951,1.37426 -1.23318,1.08371 -2.48486,2.14961 -3.65415,3.29551 -1.12025,1.09524 -2.33185,2.11469 -3.62045,3.03596 -1.12923,0.74035 -2.30544,1.37276 -3.49822,2.01796 4.20417,7.88691 1.13363,7.90498 5.12044,7.15046 1.30607,-0.26582 2.64759,-0.40143 3.88534,-0.91698 2.39,-0.79527 4.64483,-1.90053 6.63705,-3.37725 0.43376,-0.33785 0.88413,-0.65804 1.3013,-1.01354 1.3366,-1.13905 2.35067,-2.5616 3.5441,-3.81998 0.49121,-0.51494 0.96526,-1.05388 1.4749,-1.55334 0.19652,-0.19262 0.47098,-0.32628 0.61216,-0.5572 0.0236,-0.0387 -0.0882,0.0351 -0.13235,0.0526 2.46314,-1.54611 -0.90039,0.61434 -6.01253,-5.48892 -0.27743,-0.33124 1.00014,-1.22261 1.25002,-1.4635 0.18983,-0.18287 -0.9583,0.74506 -0.6421,0.47453 -0.69944,0.56226 -1.3117,1.20521 -2.0194,1.75147 0.1932,-0.0367 0.0494,-0.0139 -0.30735,0.19902 -0.66204,0.39753 -1.31272,0.81745 -1.86488,1.34617 -0.81433,0.73052 -1.6274,1.46252 -2.41372,2.21943 -0.46565,0.46381 -0.87188,0.83128 -1.41891,1.22108 -0.20537,0.14641 -0.41535,0.28703 -0.6201,0.43411 -0.0684,0.0493 -0.24543,0.0863 -0.19919,0.1542 0.0472,0.0696 0.16765,-0.0515 0.25149,-0.0774 -5.88702,2.1929 -2.55682,9.94607 3.33021,7.75317 z" />
    <path
       style="fill:#000000;fill-opacity:1;fill-rule:nonzero;stroke:none;stroke-width:0.763159"
       id="path2"
       d="m 114.04048,219.14436 c 0.94029,1.83277 2.10521,3.55026 3.25461,5.27253 1.55437,2.28409 3.45717,4.33225 5.33758,6.38389 1.77152,1.83534 3.54053,3.6707 5.23909,5.56522 0.46709,0.48969 0.81978,1.06278 1.25055,1.57731 0.0879,0.10493 -0.23224,-0.19707 -0.24091,-0.32979 -0.0762,-1.17081 -0.78167,-2.59219 -0.009,-3.51883 1.09676,-1.31614 3.20119,-1.48805 4.80181,-2.23207 0.14347,0.0315 0.28365,0.10299 0.43061,0.0941 0.0607,-0.003 -0.09,-0.0763 -0.13779,-0.11161 -0.78232,-0.57749 -0.0401,0.0111 -0.84862,-0.6721 -1.12059,-0.94827 -0.48245,-0.3569 -1.46494,-1.32093 -1.94118,-2.11866 -3.58579,-4.4467 -5.23952,-6.76077 -1.45819,-2.0775 -2.6518,-4.3104 -3.58641,-6.63245 -0.92158,-2.27145 -1.56149,-4.62791 -2.26757,-6.96166 -0.19458,-0.74761 -0.48275,-1.46792 -0.69266,-2.21119 -0.0338,-0.11997 -0.10521,-0.48466 -0.10103,-0.36051 0.0149,0.47385 0.55735,1.15116 0.1357,1.41662 -2.10637,1.32574 -4.64644,1.92312 -6.96967,2.8847 -0.16917,-0.11635 -0.43695,-0.53348 -0.50785,-0.34902 -0.0909,0.23688 0.26183,0.44001 0.38728,0.66272 0.23762,0.42167 0.48269,0.84002 0.7016,1.27032 0.92293,1.81421 1.6953,3.70096 2.56828,5.5366 2.01273,4.09591 4.20728,8.11599 6.60897,12.02577 1.85288,2.89024 4.03424,5.57267 6.19514,8.26384 0.68919,0.66083 1.10441,1.58001 1.80807,2.22853 0.0918,0.0846 -0.21909,-0.17202 -0.22776,-0.29218 -0.0953,-1.29398 -0.0538,-2.59361 -0.0807,-3.89043 7.23975,-2.92345 3.0959,-2.62439 6.01276,-1.71217 0.0511,0.0167 -0.0708,-0.0763 -0.1091,-0.11161 -0.1067,-0.0994 -0.217,-0.1954 -0.32555,-0.2931 -4.59056,-4.07303 -10.77586,1.9727 -6.18531,6.0457 v 0 c 0.54384,0.47853 2.27354,2.02575 2.9113,1.93031 1.96478,-0.29413 3.73508,-1.28012 5.60264,-1.92015 0.009,-1.35951 0.15722,-2.72435 0.0269,-4.07849 -0.0269,-0.2865 -0.31797,-0.49342 -0.48873,-0.73311 -0.53831,-0.7556 -1.22717,-1.41851 -1.76473,-2.175 -1.94426,-2.41967 -3.91365,-4.82623 -5.5967,-7.41586 -2.25728,-3.6559 -4.2967,-7.42797 -6.19104,-11.25792 -1.21205,-2.54011 -2.25194,-5.16189 -3.70182,-7.59745 -0.2696,-0.45296 -0.52232,-0.91877 -0.85221,-1.33571 -0.40144,-0.50737 -0.88864,-0.95075 -1.33295,-1.42611 -2.45728,0.86577 -5.17202,1.2596 -7.3718,2.59731 -0.58263,0.35431 0.73776,3.95064 0.91103,4.56615 0.78197,2.57446 1.49277,5.17338 2.52193,7.676 1.20287,2.88855 2.6512,5.69042 4.49685,8.27604 1.95635,2.7376 3.91454,5.48878 6.26959,7.94993 1.83949,1.74139 3.76465,3.50272 6.30409,4.30158 1.78378,-0.70186 4.08228,-0.74344 5.35127,-2.10559 2.12078,-2.27652 -0.78299,-5.2167 -2.11941,-6.85018 -1.7199,-1.91736 -3.50388,-3.78104 -5.30213,-5.63474 -1.58878,-1.73221 -3.21019,-3.45204 -4.54114,-5.36963 -1.00357,-1.50368 -2.03276,-2.99685 -2.85021,-4.59904 -2.83559,-5.28128 -10.85578,-1.54686 -8.02019,3.73441 z" />
    <path
       style="fill:#000000;fill-opacity:1;fill-rule:nonzero;stroke:none;stroke-width:0.763159"
       id="path3"
       d="m 89.116769,217.3852 c -0.94132,2.01262 -1.83801,4.04085 -2.85131,6.02371 -0.52845,0.98343 -1.09065,1.95049 -1.65213,2.91775 -3.01436,5.19468 4.87435,9.16455 7.88871,3.9699 v 0 c 0.63486,-1.09444 1.27047,-2.18876 1.86257,-3.30407 1.09155,-2.14249 2.06697,-4.3301 3.07767,-6.50603 2.35481,-5.48232 -5.97071,-8.58358 -8.32551,-3.10126 z" />
    <path
       style="fill:#000000;fill-opacity:1;fill-rule:nonzero;stroke:none;stroke-width:0.763159"
       id="path4"
       d="m 50.357149,72.367147 c -1.80994,1.223169 -3.13728,2.915965 -4.48673,4.547552 -0.42087,0.508846 -0.84205,1.01747 -1.26307,1.526205 -0.44879,0.542721 -0.89758,1.08547 -1.34637,1.628219 -2.48321,3.01294 -4.72414,6.188853 -6.8104,9.449968 -1.24627,1.970753 -2.36754,4.012206 -3.2556,6.145736 -0.42588,0.99832 0.46987,-1.146901 0.76634,-1.039654 2.73762,0.990359 4.83176,3.157709 7.48908,4.322369 0.30489,0.133606 0.26736,-0.576123 0.40194,-0.863823 0.64898,-1.387337 0.33798,-0.750952 1.12853,-2.255752 1.53711,-2.968433 3.36878,-5.791207 5.40317,-8.484465 1.69888,-1.897019 3.10953,-3.964693 4.40025,-6.116205 1.14653,-1.828211 2.40651,-3.595381 4.06706,-5.05225 4.19891,-3.394331 3.43714,-0.436587 -2.68424,-8.658014 -4.03851,2.186889 -6.81616,5.825136 -9.62837,9.202906 -2.9256,3.566963 -5.29238,7.47053 -7.21732,11.575287 -1.30501,2.733174 -2.03394,5.635805 -2.38944,8.596166 -0.11355,1.500764 -0.33365,2.990923 -0.45395,4.491298 -1.17949,4.71228 0.83714,2.34666 8.64178,2.50084 0.74289,-3.52388 2.2987,-6.794011 3.96779,-10.007055 1.76436,-3.484766 4.12893,-6.646288 6.25446,-9.936435 1.19196,-1.712168 1.97304,-3.648239 3.15285,-5.363386 -0.48533,0.426539 1.16246,-1.333895 0.70809,-0.834262 -0.0739,0.08128 -0.29435,0.326278 -0.22291,0.242997 2.69586,-3.141147 1.37012,-0.571503 -5.01115,-6.905319 -2.281,1.239536 -3.99363,3.199712 -5.63284,5.088937 -2.7689,3.190776 -4.69611,6.879181 -6.54527,10.574796 -2.67528,5.353283 5.45431,8.876628 8.12959,3.523318 v 0 c 1.54249,-3.090683 3.10613,-6.200516 5.41287,-8.876128 0.69941,-0.822237 1.42539,-1.590392 2.20338,-2.34847 0.16834,-0.163946 0.50682,-0.486495 0.49965,-0.500635 -0.0236,-0.04621 -0.10344,0.03451 -0.15515,0.05177 -1.88582,-1.995275 -4.0777,-3.772048 -5.65743,-5.985882 -0.22133,-0.31019 0.61998,-0.507371 0.78069,-0.84843 0.12628,-0.268048 -0.45637,0.402796 -0.67128,0.616261 -0.55616,0.552407 -0.99761,1.202765 -1.46877,1.815129 -1.15438,1.774129 -2.07139,3.667974 -3.2104,5.451428 -2.25874,3.513408 -4.78366,6.884609 -6.6454,10.611315 -1.91275,3.71418 -3.69329,7.4997 -4.57569,11.559671 2.89828,0.30292 5.8409,0.34933 8.69483,0.90877 0.22519,0.0443 -0.32463,2.20026 0.0266,0.75939 0.052,-0.21321 0.10219,-0.42726 0.14092,-0.64306 0.0501,-0.27927 0.0836,-0.5609 0.12539,-0.84136 0.1097,-1.40635 0.3275,-2.802263 0.42645,-4.209363 0.23337,-2.125263 0.76087,-4.205351 1.69839,-6.164581 1.61158,-3.475191 3.62027,-6.769513 6.08259,-9.790079 1.93645,-2.331102 3.85212,-4.724079 6.21246,-6.698479 -4.02369,-7.047052 -1.78505,-8.896864 -4.6869,-6.909215 -0.89698,0.614396 -1.75672,1.275164 -2.57294,1.980746 -0.41216,0.383256 -0.84182,0.750869 -1.23648,1.149796 -1.72812,1.746851 -3.08643,3.775806 -4.39155,5.804762 -0.48807,0.817032 -0.95575,1.668273 -1.52308,2.441605 -0.74546,1.016134 -1.63227,1.938381 -2.38778,2.947723 -2.29798,3.06115 -4.38451,6.257577 -6.12507,9.626634 -0.84223,1.621289 -0.65359,1.207916 -1.30915,2.624201 -0.078,0.168679 -0.37733,0.38835 -0.22803,0.508262 4.89977,3.935661 6.32145,7.700748 8.18819,3.344814 0.68565,-1.698307 1.61953,-3.299304 2.5908,-4.868013 1.89606,-2.978202 3.94692,-5.871119 6.20703,-8.622052 1.62727,-1.967913 3.19029,-3.993751 4.96555,-5.84874 5.27564,-3.275282 0.30172,-10.223243 -4.97391,-6.947961 z" />
    <path
       style="fill:#000000;fill-opacity:1;fill-rule:nonzero;stroke:none;stroke-width:0.763159"
       id="path5"
       d="m 152.76779,76.244383 c 1.38963,0.596916 2.56216,1.448964 3.71892,2.366396 1.64233,1.435993 2.74239,3.236982 3.76524,5.079166 1.33752,2.486364 2.46654,5.063385 3.63944,7.61914 1.11697,2.40503 2.07397,4.869042 3.11924,7.30085 0.55292,1.301272 1.04401,2.616515 1.27843,4.000935 0.0209,0.17257 0.0888,0.66196 0.0909,0.84584 5.7e-4,0.0448 -0.0529,-0.0907 -0.032,-0.13138 0.52932,-1.03957 0.5269,-2.64193 1.66835,-3.08208 3.77409,-1.455312 4.4547,-0.752263 6.0803,0.58842 -1.41013,-4.087774 -3.21237,-8.041918 -5.02903,-11.983591 -2.10673,-4.481834 -4.64579,-8.767238 -7.26599,-13.001871 -0.96418,-1.486402 -1.95699,-2.959275 -2.71457,-4.549723 -0.34788,-0.730355 -0.46622,-0.820122 -0.19069,-0.554133 -0.055,2.314985 0.4258,2.727495 -2.36863,4.31335 -0.59334,0.336717 -1.38541,0.113844 -2.07149,0.215997 -0.0673,0.01113 -0.19697,0.06235 -0.16141,0.116349 0.17396,0.264152 0.46287,0.445356 0.68361,0.677135 0.35921,0.377189 0.70387,0.766207 1.05582,1.149323 2.62256,3.199572 4.61105,6.808036 6.47212,10.427495 1.81002,3.605987 2.90099,7.467969 4.10554,11.273141 1.41219,4.772928 0.0511,3.989878 9.35915,0.241049 0.30144,-0.12136 -0.162,-0.592963 -0.25585,-0.886007 -0.18651,-0.581328 -0.39006,-1.157757 -0.58509,-1.736635 -1.86597,-5.166317 -3.8828,-10.280973 -5.9331,-15.385525 -1.19899,-3.17235 -2.54333,-6.335347 -3.37246,-9.616308 -0.0409,-0.206533 -0.10342,-0.410116 -0.12315,-0.619238 -0.009,-0.08657 0.0956,0.160606 0.0882,0.24745 -0.0368,0.432552 0.11059,0.978279 -0.2182,1.285797 -1.11072,1.038958 -2.36599,2.07569 -3.86238,2.531149 -1.77938,0.54158 -3.391,-1.743343 -1.81779,0.167843 2.06264,2.589658 3.64413,5.457608 5.16969,8.339112 2.81703,5.289848 10.85028,1.579871 8.03326,-3.710005 v 0 c -1.83414,-3.426981 -3.73237,-6.840268 -6.24225,-9.893207 -1.21495,-1.353546 -2.7577,-3.466618 -5.06496,-3.25385 -4.81242,0.443769 -5.40982,3.70082 -4.67373,6.884276 0.96256,3.59257 2.31904,7.0895 3.68529,10.562604 1.99608,4.969526 3.96066,9.948348 5.78167,14.976577 0.15902,0.464283 0.32598,0.926228 0.47704,1.392816 0.0825,0.25497 -0.0604,0.80125 0.22357,0.77147 10.08494,-1.05688 9.36708,0.33096 7.932,-4.660336 -1.34073,-4.23519 -2.5821,-8.523517 -4.6232,-12.526482 -2.21801,-4.291083 -4.59942,-8.561456 -7.79733,-12.301272 -1.28558,-1.354882 -3.48124,-3.839019 -5.41876,-4.350676 -3.05734,-0.807374 -4.97275,-0.481262 -6.84393,2.285786 -0.54733,0.809406 -0.26512,1.897047 -0.39771,2.84557 0.1354,0.466594 0.24241,0.941315 0.40662,1.399808 0.77357,2.158248 2.31437,4.139216 3.49435,6.109496 2.44646,3.950942 4.8233,7.946337 6.79521,12.126247 1.09001,2.363139 2.18124,4.72664 3.17005,7.128748 1.04532,2.539471 0.42548,1.139471 1.35241,3.539151 0.21012,0.54401 0.43752,1.08211 0.65625,1.62313 1.64306,2.54576 2.02218,4.18815 7.32652,2.53357 2.51721,-0.78522 2.03838,-3.991 1.79908,-5.73785 -0.36659,-1.970026 -0.98671,-3.872445 -1.79788,-5.724622 -1.07214,-2.490316 -2.05051,-5.015063 -3.1977,-7.47735 -1.26325,-2.752546 -2.48185,-5.526971 -3.93457,-8.199381 -1.5767,-2.796025 -3.35991,-5.475422 -5.92464,-7.592808 -1.52532,-1.195418 -3.09303,-2.337559 -4.89635,-3.151251 -5.43693,-3.037908 -10.05035,4.122515 -4.61339,7.160423 z" />
    <path
       style="fill:#000000;fill-opacity:1;fill-rule:nonzero;stroke:none;stroke-width:0.763159"
       id="path6"
       d="m 22.612599,133.40477 c -0.0553,1.24527 0.0887,2.48149 0.20854,3.71938 0.10144,1.89201 0.53484,3.74622 1.15256,5.54512 0.94026,2.20526 2.40737,4.20196 4.57792,5.50738 0.45462,0.27334 0.95671,0.47146 1.43506,0.7072 2.77791,0.97844 5.70501,0.8067 8.31986,-0.51522 0.44307,-0.22407 0.84622,-0.51055 1.26933,-0.76582 2.99465,-2.20292 4.02538,-5.243 4.7764,-8.58334 0.48231,-2.67875 0.62457,-5.39389 0.68162,-8.10493 -0.0117,-1.39012 -0.23822,-2.76586 -0.35876,-4.14893 -0.0444,-0.58091 -0.0644,-1.16324 -0.0726,-1.74549 0.14756,-1.6582 -0.94287,2.62584 -0.1372,0.67839 0.30055,-0.82784 0.4197,-1.69341 0.49879,-2.55952 0.4799,-5.88771 -8.46123,-6.51972 -8.94113,-0.63201 v 0 c -0.002,0.0568 -0.0896,0.61039 -0.0102,0.40435 0.43176,-0.86641 -0.53517,1.64186 -0.37619,2.22391 0.012,0.77228 0.0393,1.54458 0.10189,2.31488 0.0984,1.10256 0.25287,2.20011 0.33024,3.30414 -0.0446,2.21476 -0.14909,4.43232 -0.50863,6.62522 -0.22537,1.13407 -0.49123,2.31245 -1.06053,3.33992 -0.17516,0.14724 -0.60202,0.46049 -0.61653,0.64356 -0.74048,-0.0551 -1.05973,-0.78825 -1.39716,-1.31911 -0.45306,-1.17658 -0.65717,-2.42819 -0.73435,-3.67254 -0.0965,-0.98944 -0.23254,-1.97039 -0.17201,-2.96654 0,-5.90463 -8.96686,-5.90463 -8.96686,0 z" />
    <path
       style="fill:#000000;fill-opacity:1;fill-rule:nonzero;stroke:none;stroke-width:0.763159"
       id="path7"
       d="m 19.302159,128.46082 c 0.64802,1.98531 1.43593,3.92681 2.24567,5.85876 0.37798,1.00473 0.9214,1.93994 1.43288,2.88752 0.0614,0.11357 0.21186,0.46804 0.17142,0.34657 -0.72047,-2.16384 -0.89741,1.29067 1.09019,-4.59579 1.6037,-0.21683 3.19554,-0.53245 4.81109,-0.6503 0.19467,-0.0139 0.32813,0.20598 0.51396,0.26192 0.002,7.6e-4 -0.0296,-0.0933 -0.13818,-0.3599 -0.25247,-0.62018 -0.12491,-0.25135 -0.32546,-0.93469 -0.38694,-1.65861 -0.12975,-3.39001 0.0129,-5.06497 -0.4982,1.40449 0.33199,-1.95188 0.17856,-1.47738 -0.0717,0.22184 0.0681,0.57136 -0.15136,0.68031 -1.81714,0.90226 -3.6464,2.05481 -5.69768,2.22396 -1.78291,0.14697 -2.33961,-2.88788 -1.88913,-0.94607 0.80627,3.29335 1.79056,6.54132 3.05923,9.70585 0.69357,1.52261 1.46942,3.04556 2.61638,4.32646 0.35693,0.39862 0.71082,0.81656 1.16624,1.11575 0.68144,0.44767 1.37668,1.01542 2.20572,1.09942 1.32482,0.13416 2.64358,-0.31615 3.96537,-0.47419 0.7871,-0.87557 1.73843,-1.64314 2.36131,-2.62671 0.37738,-0.59594 0.42596,-1.32766 0.57242,-2.00593 0.45574,-2.11057 0.28924,-4.33621 0.2204,-6.47182 -0.0721,-2.08928 -0.47429,-4.15122 -0.65372,-6.23172 -0.0766,-0.8886 -0.0855,-1.70775 -0.10955,-2.59851 0.0354,-0.95615 -7.9e-4,-0.93422 0.13863,-1.76659 0.031,-0.18482 0.19518,-0.72211 0.11274,-0.55146 -1.09695,2.27092 5.16462,2.15015 -5.74558,2.80229 -0.95642,0.0571 -1.4563,-1.16063 -2.18446,-1.74092 0.37857,2.16395 0.34151,4.36203 0.21676,6.54352 -0.16042,2.20921 -0.44802,4.41147 -0.77388,6.60476 0.40032,-1.88895 0.47559,-3.02694 4.49605,-3.31058 1.42017,-0.1002 2.31502,1.57934 3.61505,2.12109 0.24566,0.10243 -0.17085,-0.47556 -0.24464,-0.7166 -0.29152,-0.95237 -0.45599,-1.66836 -0.7056,-2.65858 -0.50924,-2.35638 -0.9527,-4.74983 -0.99591,-7.16026 -0.0126,-0.70085 0.0293,-1.40161 0.0439,-2.10244 0.0881,-5.90405 -8.87785,-6.02014 -8.966,-0.11607 v 0 c -0.009,0.90881 -0.0522,1.8178 -0.0281,2.72636 0.0763,2.88587 0.59413,5.7512 1.21928,8.57133 0.33271,1.30576 0.50424,2.06834 0.90836,3.33112 0.12192,0.38103 0.10769,0.84523 0.4034,1.13201 1.22791,1.1908 2.29235,3.08915 4.06132,3.19779 4.12306,0.2533 4.43373,-1.79138 5.07583,-3.87509 0.35898,-2.43387 0.67821,-4.877 0.84672,-7.32902 0.17282,-3.40811 0.24441,-6.9076 -0.90365,-10.18942 -0.87755,-0.91195 -1.3224,-2.63236 -2.63264,-2.7359 -6.78631,-0.53621 -6.80777,3.42241 -6.9212,7.44492 0.089,2.97689 0.47414,5.90121 0.76426,8.86243 0.0403,1.20814 0.11284,2.42822 0.0485,3.63705 -0.0158,0.29831 -0.0909,0.59358 -0.0879,0.89221 5.3e-4,0.0543 0.0499,0.16479 0.098,0.13445 0.58878,-0.37176 1.10838,-0.83065 1.66257,-1.24597 3.09065,-0.006 2.34271,-0.55597 4.08317,0.74516 0.0354,0.0278 -0.0997,-6.6e-4 -0.13241,-0.0301 -0.68976,-0.61754 -1.01631,-1.51869 -1.42586,-2.29391 -1.18741,-2.90132 -2.02927,-5.90452 -2.78962,-8.92512 -0.4448,-1.43457 -1.08232,-4.31446 -3.11061,-4.51365 -5.94457,-0.5838 -6.64315,2.01794 -6.92961,5.53803 -0.23413,2.76977 -0.48263,5.59163 0.39521,8.29499 0.64547,1.75392 1.40166,3.53796 2.89249,4.8411 0.41087,0.35912 0.77096,0.92077 1.33205,0.96934 1.77217,0.15337 3.54846,-0.2622 5.32269,-0.39342 0.50863,-1.37837 1.21733,-2.70623 1.52591,-4.13509 0.0845,-0.39133 -0.23577,-0.76841 -0.38625,-1.14214 -0.3749,-0.93113 -1.07999,-1.73397 -1.35984,-2.70584 -0.78548,-1.87047 -1.53832,-3.75282 -2.1708,-5.67386 -2.16683,-5.54913 -10.59382,-2.69546 -8.427,2.8537 z" />
    <path
       style="fill:#000000;fill-opacity:1;fill-rule:nonzero;stroke:none;stroke-width:0.763159"
       id="path8"
       d="m 165.85752,113.2685 c -0.21311,2.28821 -0.53135,4.56734 -0.85188,6.84447 -0.38259,2.55965 -0.68262,5.12059 -0.48526,7.70328 0.18173,1.69283 0.71538,3.3294 1.34342,4.91923 0.79685,2.08048 2.09286,3.9336 3.39246,5.76427 0.87175,1.21826 1.88298,2.36322 3.21889,3.16589 0.94543,0.56802 1.40821,0.68228 2.41833,1.0428 2.50615,0.67777 5.18302,0.64568 7.62945,-0.26165 0.57047,-0.21154 1.10588,-0.49735 1.65884,-0.74603 0.48959,-0.33362 1.02748,-0.61317 1.4688,-1.00085 2.83651,-2.4919 3.14082,-5.75956 3.33083,-9.16023 -0.0359,-3.8398 -0.35255,-7.67067 -0.53105,-11.50595 -0.1632,-2.98842 -0.6452,-5.94928 -1.02402,-8.91763 -0.0622,-0.54086 -0.16648,-1.22849 -0.15991,-1.79676 2.1e-4,-0.0195 0.0484,-0.0571 0.0401,-0.0404 -0.44482,0.89989 -0.37341,2.30204 -1.3511,2.69253 -3.98935,1.59343 -4.46286,1.06944 -6.25259,-0.25914 1.05184,3.31487 1.2747,6.76398 1.39354,10.19652 0.0239,2.99118 -0.20773,5.98561 -0.93578,8.90191 -0.2977,1.15781 -0.71774,2.28072 -1.2403,3.36616 -0.36758,0.76353 -0.18621,0.52065 -0.56948,0.94432 0.27199,-0.0562 -0.73504,0.52268 -0.59588,0.32728 0.11538,-0.162 0.53571,-0.39659 0.73693,-0.40756 0.39777,-0.0223 0.79524,0.0479 1.19286,0.0718 0.20414,0.0457 0.53475,0.31841 0.61256,0.13667 0.11507,-0.26888 -0.21461,-0.5433 -0.32212,-0.8148 -0.20355,-0.51355 -0.42461,-1.02142 -0.61193,-1.54032 -0.72647,-2.01234 -1.22386,-4.06309 -1.69818,-6.1363 -0.15273,-0.68579 -0.30699,-1.37128 -0.45808,-2.05738 -0.3217,-1.46073 -0.37646,-1.5947 -0.56656,-2.93361 -0.0445,-0.31442 -0.14496,-1.19405 -0.17396,-1.58318 -0.006,-0.0849 0.0209,0.16896 0.0323,0.25358 -2.63348,0.82674 -5.26699,1.65346 -7.90046,2.48018 -0.12225,-0.10299 -0.36304,-0.46234 -0.36633,-0.30894 -0.009,0.42134 0.23105,0.81497 0.34666,1.22236 0.16619,0.58445 0.32598,1.17048 0.49892,1.75317 0.62896,2.11884 0.59008,1.92772 1.32554,4.04366 1.39273,3.37315 3.48712,7.10654 7.63193,8.00816 0.8193,0.17814 1.68042,0.0821 2.52061,0.12303 0.86189,-0.27223 1.79086,-0.40408 2.58565,-0.81712 3.52389,-1.83124 4.4904,-5.65562 5.12898,-9.03631 0.45289,-3.109 0.52893,-6.25538 0.43203,-9.38765 -0.0239,-0.45963 -0.0484,-0.91932 -0.0756,-1.37885 -0.0269,-0.47394 -0.11328,-1.7577 -0.14766,-2.27111 -0.0179,-0.28297 -0.0466,-0.56552 -0.0577,-0.84885 -0.003,-0.0816 0.0368,-0.32355 0.0149,-0.24467 -0.16858,0.59558 -0.30269,1.19912 -0.45402,1.79868 -2.41322,0.28656 -4.82647,0.57309 -7.23969,0.85962 -0.098,-0.0913 -0.26751,-0.40099 -0.29381,-0.27417 -0.0481,0.2313 0.14406,0.45162 0.20952,0.67908 0.11627,0.40335 0.23105,0.80724 0.33599,1.21326 0.42473,1.64141 0.39149,1.60264 0.73238,3.30601 0.59184,3.58172 0.46117,7.20621 0.2182,10.8075 -0.22238,1.32727 -0.093,3.88491 -1.56568,4.69343 -0.54835,0.27835 -0.25944,0.13917 -0.8685,0.41418 -5.4956,2.94494 -1.02338,10.18263 4.47222,7.23769 v 0 c 2.0081,-1.13201 1.00381,-0.48026 2.9868,-1.98959 0.47988,-0.53084 1.01341,-1.02335 1.4396,-1.59248 1.80622,-2.41191 2.22674,-5.39465 2.48502,-8.24331 0.28544,-4.29158 0.39513,-8.61114 -0.35557,-12.87244 -0.37768,-1.85232 -0.75863,-3.70338 -1.33794,-5.51289 -0.15663,-0.48941 -0.3018,-0.98515 -0.52107,-1.45325 -0.25854,-0.55218 -0.26871,-1.50429 -0.90786,-1.59732 -2.53048,-0.36828 -5.11637,0.23214 -7.67456,0.34827 -0.20922,0.69904 -0.47682,1.38514 -0.62753,2.09709 -0.0556,0.26165 0.0421,1.42406 0.0598,1.68901 0.0759,1.13137 0.15244,2.26277 0.21043,3.39509 0.0947,2.57969 0.0179,5.17191 -0.31104,7.73627 -0.15423,0.90621 -0.33589,1.79141 -0.55537,2.6851 -0.0239,0.0966 -0.15872,0.2313 -0.0726,0.2894 0.33019,0.22212 0.94609,-0.64905 1.22,-0.0651 0.31094,0.11106 0.87764,0.21404 1.01053,0.59708 0.0269,0.0763 -0.18651,0.0139 -0.25585,-0.034 -0.20744,-0.14224 -0.39132,-0.31857 -0.54235,-0.51299 -0.63557,-0.81807 -0.86745,-1.4854 -1.3022,-2.4265 -0.64976,-1.85331 -0.62229,-1.70359 -1.18571,-3.60197 -0.009,-0.0306 -0.91746,-3.23796 -0.97022,-3.37335 -0.28753,-0.73731 -0.15811,-2.15282 -1.00052,-2.16097 -2.84139,-0.0278 -5.48616,1.38104 -8.22921,2.07154 -0.0269,2.88888 0.73519,5.71622 1.35295,8.53014 0.57866,2.4894 1.17791,4.96104 2.09086,7.36774 0.47737,1.25852 1.41649,3.50575 2.28765,4.56422 0.6443,0.78288 1.51059,1.383 2.2659,2.07452 0.9475,0.29062 1.85739,0.72549 2.84249,0.87187 0.68405,0.1016 1.39554,-0.006 2.07254,-0.1414 2.30529,-0.46512 4.06378,-1.89964 5.43248,-3.6078 0.272,-0.41805 0.5653,-0.82463 0.81581,-1.25412 1.04015,-1.7832 1.62452,-3.78393 2.19834,-5.72579 0.86931,-3.62027 1.22054,-7.32023 1.15386,-11.03098 -0.16619,-4.50903 -0.51748,-9.0639 -2.17814,-13.34457 -1.84706,-2.88229 -1.98673,-4.42642 -7.78246,-2.63698 -2.32134,0.71671 -1.77472,4.80602 -1.57526,6.45431 0.35362,2.7607 0.80307,5.51431 0.96955,8.2926 0.16798,3.59444 0.44509,7.18459 0.53102,10.78189 -0.0149,0.45969 -0.012,0.92016 -0.0439,1.3791 -0.0356,0.51235 -0.21341,1.01393 -0.21371,1.52737 -1.8e-4,0.22379 0.22118,0.0167 0.28694,0.0927 0.0371,0.0423 -0.0499,0.0988 -0.0747,0.14808 -0.53966,0.47044 -1.33042,0.54398 -2.02822,0.53256 -0.1064,-0.0284 -0.20863,-0.081 -0.31919,-0.0855 -0.0475,-0.002 0.0529,0.14975 0.009,0.13305 -0.41708,-0.16032 -0.61569,-0.7691 -0.90652,-1.01663 -0.93662,-1.31377 -1.9135,-2.62378 -2.48654,-4.12043 -0.37383,-0.84595 -0.63796,-1.75089 -0.7898,-2.65287 -0.25017,-1.97457 0.26213,-3.95704 0.44093,-5.91763 0.33195,-2.36161 0.65993,-4.72533 0.88336,-7.09819 0.6309,-5.87532 -8.29145,-6.70621 -8.92235,-0.83089 z" />
    <path
       style="fill:#000000;fill-opacity:1;fill-rule:nonzero;stroke:none;stroke-width:0.763159"
       id="path9"
       d="m 182.28235,126.50482 c -0.32269,1.58552 -1.05935,3.05467 -1.78967,4.50577 -0.85179,1.64849 -1.9039,3.201 -3.23975,4.54505 -0.27887,0.23409 -0.52944,0.46921 -0.85006,0.65339 -0.0664,0.0381 -0.26781,0.13611 -0.2176,0.0807 0.47513,-0.52552 1.28582,-0.41838 1.91503,-0.38876 0.12792,0.0167 0.30382,0.14362 0.38387,0.0493 0.0834,-0.0983 -0.084,-0.23827 -0.12195,-0.35838 -0.087,-0.27695 -0.18741,-0.55126 -0.25257,-0.83345 -0.12135,-0.52502 -0.20474,-1.05705 -0.30696,-1.58558 -1.36276,-5.76663 -10.12006,-3.9719 -8.7573,1.79473 v 0 c 0.25525,0.98496 0.41866,1.99463 0.766,2.95485 0.54943,1.51883 1.42502,3.08389 2.66633,4.22809 0.58051,0.5351 1.30545,0.91457 1.95818,1.37183 0.80699,0.22686 1.58504,0.5793 2.42096,0.68073 2.83807,0.34432 5.2139,-1.31808 7.0718,-3.07242 1.88525,-1.99099 3.49059,-4.18147 4.69337,-6.59638 1.0627,-2.13799 2.07682,-4.31845 2.50504,-6.65651 1.04237,-5.8243 -7.80247,-7.19711 -8.84484,-1.37281 z" />
    <path
       style="fill:#000000;fill-opacity:1;fill-rule:nonzero;stroke:none;stroke-width:0.763159"
       id="path10"
       d="m 84.376449,82.525091 c 0.9108,2.302654 1.86856,4.589415 2.7817,6.891957 0.52968,1.542962 1.18571,3.043949 1.77783,4.565839 0.10405,0.267492 0.20648,0.535791 0.2922,0.808793 0.006,0.01948 -0.0215,0.08239 -0.0191,0.06124 0.0986,-0.868861 0.20526,-1.736886 0.30788,-2.605329 10.874021,-4.241815 2.52677,-2.452321 6.35722,-1.581234 0.11735,0.02783 -0.11797,-0.196513 -0.18319,-0.291151 -0.19079,-0.276956 -0.39191,-0.547509 -0.58461,-0.82324 -0.96197,-1.376482 -0.62788,-0.880551 -1.51806,-2.343877 -1.69971,-3.504502 -3.37077,-7.018606 -5.25022,-10.443917 -1.79065,-3.168147 -3.71148,-6.266818 -5.89409,-9.214876 -1.24973,-1.700784 -0.10719,-0.132771 -1.01572,-1.407657 -0.07,-0.09826 0.27932,0.201524 0.20552,0.297247 -1.54341,2.002429 -2.95458,4.15099 -4.91251,5.809633 -0.61161,0.518143 -2.32846,-1.455143 -0.80524,0.127761 2.92057,3.111921 5.11726,6.714261 7.3195,10.280054 0.45333,0.762337 0.9048,1.525649 1.35999,2.287067 0.0622,0.104102 2.61849,4.353933 2.72215,4.537921 1.32192,2.346104 2.44414,4.776158 3.54142,7.217846 2.43768,5.256052 4.03824,10.794192 5.24438,16.394752 1.25808,5.78723 10.046651,4.13037 8.788571,-1.65689 v 0 c -0.24862,-1.13437 -0.46889,-2.27445 -0.74584,-3.40312 -1.22117,-4.97654 -2.89613,-9.860142 -5.018691,-14.565767 -1.23218,-2.728052 -2.49973,-5.43058 -3.97813,-8.053389 -0.107,-0.189832 -2.62877,-4.38174 -2.71036,-4.518186 -0.47886,-0.800721 -0.95426,-1.603195 -1.43138,-2.404807 -2.54148,-4.111604 -5.11465,-8.242943 -8.52311,-11.799885 -0.61511,-0.604542 -2.85918,-2.997631 -3.67171,-2.563354 -7.15914,3.826382 -6.24123,4.775322 -3.74468,8.169515 1.96728,2.641291 3.67128,5.433892 5.2886,8.272197 1.94963,3.537124 3.61257,7.195997 5.44786,10.783724 0.8597,1.389675 1.72476,2.788175 2.752,4.079817 0.31903,0.401153 0.6106,0.831979 1.0085,1.166469 0.60965,0.512465 1.17,1.404845 1.98944,1.353602 2.07488,-0.12971 3.94313,-1.231937 5.91469,-1.847891 0.17139,-0.991333 0.45171,-1.971616 0.51416,-2.974027 0.0212,-0.342618 -0.5562,-1.834197 -0.6622,-2.107199 -0.58251,-1.500375 -1.23326,-2.978481 -1.7516,-4.500539 -0.94089,-2.37238 -1.92942,-4.727391 -2.8677,-7.100217 -2.35482,-5.482324 -10.68033,-2.381065 -8.32552,3.10126 z" />
    <path
       style="fill:#000000;fill-opacity:1;fill-rule:nonzero;stroke:none;stroke-width:0.763159"
       id="path11"
       d="m 113.39947,83.232399 c -0.98618,3.631399 -2.31784,7.174758 -3.49422,10.756083 -0.63486,2.014621 -1.23696,4.042324 -1.94408,6.036708 -0.008,0.0223 -0.0251,-0.07682 7.3e-4,-0.07265 2.86668,0.44101 5.72478,0.92932 8.58715,1.39399 0.39122,-0.21461 0.072,-0.0167 0.32203,-1.03687 0.61366,-2.504986 1.40262,-4.921122 2.28592,-7.3551 1.5035,-4.029186 3.38116,-7.922761 5.23057,-11.821179 1.22485,-2.493266 2.70196,-4.852035 4.43979,-7.061749 0.63608,-0.821236 1.39731,-1.549698 2.03315,-2.370543 0.084,-0.108277 -0.12554,0.329869 -0.26751,0.313279 -2.41857,-0.282383 -4.80059,-0.790199 -7.2009,-1.185285 -0.0974,-0.867831 -0.095,-1.750553 -0.29232,-2.60352 -0.0401,-0.172297 -0.12763,0.332068 -0.19518,0.496794 -0.12703,0.309578 -0.25077,0.620408 -0.38847,0.926005 -0.75806,1.682998 -1.5704,3.34782 -2.34908,5.022718 -2.13055,4.517434 -4.1154,9.090761 -6.00725,13.698797 -1.31487,2.968488 -2.46131,5.992368 -3.32052,9.102423 -1.18258,4.34656 1.39495,3.1765 8.37753,3.26484 0.10192,0.002 1.25066,-3.459878 1.32763,-3.689709 1.16724,-3.827105 2.70276,-7.538474 4.25062,-11.241994 1.54451,-3.691745 3.57254,-7.177514 5.46524,-10.718117 2.82444,-5.286451 -5.20362,-9.006198 -8.02806,-3.719747 v 0 c -2.01148,3.767011 -4.16215,7.477823 -5.79355,11.40942 -1.62213,3.88219 -3.2257,7.774624 -4.45455,11.784492 -0.15632,0.4669 -0.3122,0.933911 -0.46897,1.400671 -0.10192,0.303537 -0.21072,0.605099 -0.30711,0.910195 -0.0179,0.05762 -0.0989,0.162833 -0.0365,0.177029 11.51778,2.611035 8.16531,-1.067434 8.21299,3.00963 0.002,0.1773 0.0942,-0.343399 0.14107,-0.515112 0.76667,-2.803818 1.82975,-5.517006 3.00976,-8.192367 1.84505,-4.49525 3.78141,-8.956347 5.86029,-13.36286 0.82307,-1.770399 1.682,-3.530638 2.47682,-5.312226 0.16529,-0.370703 0.3162,-0.746945 0.46762,-1.122797 0.10342,-0.256636 0.27977,-0.500746 0.29681,-0.774361 0.0684,-1.10682 -0.0299,-2.217174 -0.0433,-3.325747 -2.43199,-0.461917 -4.82641,-1.154111 -7.296,-1.385723 -0.30912,-0.02895 -0.42372,0.423449 -0.62643,0.642675 -0.72841,0.787778 -1.39557,1.634454 -2.09334,2.446616 -2.09947,2.69838 -3.91595,5.561792 -5.39252,8.60201 -1.95863,4.129558 -3.94081,8.256416 -5.52511,12.527123 -1.31165,3.629507 -2.59491,7.31421 -3.07769,11.131959 2.8639,0.62898 5.67198,1.54692 8.59171,1.887 0.11239,0.0139 0.64221,-1.69491 0.64899,-1.71528 0.57077,-1.714538 1.15156,-3.426512 1.65684,-5.159278 1.22119,-3.719413 2.60344,-7.398967 3.61851,-11.172936 1.53782,-5.728328 -7.16132,-7.753609 -8.6991,-2.025254 z" />
    <path
       style="fill:#000000;fill-opacity:1;fill-rule:nonzero;stroke:none;stroke-width:0.763159"
       id="path12"
       d="m 88.688229,94.228334 c 0.50228,1.988539 0.86486,4.002993 1.13561,6.029276 0.28015,2.33594 0.33267,4.68603 0.56207,7.0257 0.0281,0.27195 0.056,0.54409 0.0847,0.81606 0.008,0.0785 0.16421,1.55162 0.19434,1.54853 9.0385,-0.92687 9.12915,1.43363 8.81938,-1.71334 -0.52049,-3.38036 -1.15651,-6.7444 -1.67633,-10.125597 -0.12512,-0.860204 -0.25024,-1.720408 -0.37536,-2.580612 -0.8514,-5.851162 -9.73705,-4.729868 -8.88565,1.121294 v 0 c 0.12831,0.881609 0.25666,1.763245 0.38499,2.644882 0.50135,3.249643 1.08882,6.486293 1.62574,9.730373 0.3519,3.36817 -0.14556,0.69314 8.96637,-0.36742 0.0233,-0.003 -0.0117,-0.0423 -0.0146,-0.0637 -0.0173,-0.12525 -0.0324,-0.25079 -0.0468,-0.37649 -0.0236,-0.20709 -0.0452,-0.41465 -0.0671,-0.62205 -0.0272,-0.25831 -0.0537,-0.51695 -0.0806,-0.77539 -0.24141,-2.43298 -0.27734,-4.87943 -0.59496,-7.306918 -0.29209,-2.133558 -0.64161,-4.265697 -1.18716,-6.357364 -1.04238,-5.824302 -9.88723,-4.451494 -8.84485,1.372808 z" />
    <path
       style="fill:#000000;fill-opacity:1;fill-rule:nonzero;stroke:none;stroke-width:0.763159"
       id="path13"
       d="m 125.05393,91.838835 c 0.6816,-1.806779 1.58988,-3.535036 2.50642,-5.246843 1.02545,-1.763328 1.85912,-3.609716 2.66668,-5.465512 0.31031,-0.833288 0.84982,-1.549252 1.59801,-2.095258 3.27828,-2.825223 2.38504,-3.720554 -4.32178,-7.446091 -0.4719,-0.262203 -2.23129,1.802409 -2.65545,2.272454 -3.02464,3.089235 -5.6533,6.464305 -8.08198,9.972174 -0.58825,0.970318 -1.17648,1.940664 -1.76473,2.910982 -3.10493,5.148197 4.71319,9.237394 7.81814,4.08917 v 0 c 0.49679,-0.828695 0.99359,-1.657418 1.49035,-2.486141 2.21897,-3.228743 4.65392,-6.311103 7.43245,-9.146736 0.15931,-0.181483 0.72939,-0.540161 0.47781,-0.544197 -0.38728,-0.0056 -0.71382,0.768572 -1.00961,0.535707 -7.64573,-6.019673 -7.1727,-3.78051 -4.81083,-6.854993 0.1614,-0.209874 -0.93405,0.899785 -0.61226,0.524072 -1.65603,1.453306 -3.09485,3.110723 -3.87054,5.132692 -0.72178,1.658671 -1.45933,3.311078 -2.38501,4.883238 -1.02058,1.915223 -2.03237,3.847815 -2.80319,5.864022 -2.35481,5.482297 5.9707,8.583585 8.32552,3.10126 z" />
    <path
       style="fill:#00ffff;stroke-width:0.264583"
       id="path14"
       d="m -153.07068,240.07172 c 0.0553,2.82977 -0.0142,-1.03772 0.0286,3.01824 0.005,0.51656 -0.11736,1.05429 0.0297,1.54949 0.14957,0.50347 0.54696,0.89687 0.82867,1.34014 0.39895,0.62772 0.57742,1.48668 1.2132,1.87266 0.75336,0.45737 1.7374,0.29736 2.60609,0.44605 0.51287,-0.1327 1.02324,-0.27548 1.53861,-0.39809 0.64979,-0.1546 1.37501,-0.10453 1.95634,-0.43343 0.51693,-0.29247 1.67773,-1.02111 1.17585,-1.3387 -1.17523,-0.74367 -2.86252,-1.09053 -4.13775,-0.53556 -0.92773,0.40373 -0.71929,1.89198 -1.11693,2.82234 -0.37894,0.8866 -0.80794,1.75095 -1.2119,2.62643 -0.28048,1.43934 -0.86406,2.78685 -1.26677,4.18891 -0.15624,0.54393 -0.41971,1.08152 -0.41063,1.64737 0.01,0.60301 0.62213,1.16615 0.46514,1.74846 -0.081,0.3006 -0.72829,-0.24314 -0.93396,-0.009 -0.61336,0.69702 -0.83247,1.65988 -1.24871,2.48983 -2.7618,8.21938 0.99155,-2.29624 -1.9973,4.35067 -0.40663,0.90432 -0.39029,1.96186 -0.79873,2.86536 -0.13499,0.29863 -0.49088,0.49913 -0.53693,0.82362 -0.0693,0.48797 0.14156,0.97552 0.21234,1.46325 1.02704,0.67956 1.89385,1.71159 3.08113,2.03864 0.85641,0.2359 1.90875,-1.06024 1.60959,-1.21391 -1.39316,-0.71572 -2.7962,-1.67851 -4.36083,-1.74974 -0.0261,0 -1.31023,3.02678 -1.31616,3.04072 -0.52517,0.90707 -0.65827,1.96475 -1.07128,2.91346 -0.15316,0.35182 -0.42926,0.6382 -0.60528,0.97915 -0.41245,0.79891 -0.57841,1.64978 -1.10654,2.38506 -0.0862,0.26172 -0.17248,0.52345 -0.25872,0.7852 -0.10339,-0.0185 -0.20212,-0.0523 -0.28691,0.0844 -0.37537,0.60515 -0.24252,1.4932 -0.22015,2.16641 9.35961,5.66669 0.12701,-0.34446 0.006,-0.40124 -0.40646,-0.19056 -0.16214,1.03994 -0.16218,1.04021 -0.0667,0.45198 -0.21256,0.53001 -0.4869,0.81714 -0.0959,0.23817 -0.15277,0.49609 -0.28772,0.71456 -0.0485,0.0786 -0.18794,0.0626 -0.23965,0.13914 -0.2618,0.38754 -0.63862,1.45629 -0.85264,1.93911 -0.22341,0.55792 -0.43321,1.02401 -0.49866,1.6647 -0.0339,0.33163 0.32178,-0.62714 0.28543,-0.95853 -0.0173,-0.15801 -0.2845,0.17544 -0.35574,0.31752 -0.41792,0.83363 0.30727,0.48104 -0.54472,0.72724 0.0549,0.0212 0.19204,0.0114 0.16466,0.0633 -0.11224,0.0879 -0.22447,0.17585 -0.33671,0.26377 0.0146,-0.0298 0.0518,-0.1215 0.0438,-0.0893 -0.11878,0.4785 -0.16887,0.64262 -0.38334,1.0032 -0.1377,0.13419 -0.26769,0.2768 -0.41309,0.40259 -0.0316,0.0273 -0.005,-0.12153 0.037,-0.11962 0.0757,0.003 0.28206,0.039 0.21497,0.0744 -0.8483,0.44696 -0.38338,-0.48951 -0.71236,0.78124 0.10844,-0.0138 -0.1794,1.92487 -0.34118,1.45404 -0.14372,-0.41825 0.08,-0.8844 0.1871,-1.3135 0.0279,-0.11168 0.0945,0.23241 0.0557,0.34076 -0.0548,0.1528 -0.28121,0.21452 -0.31198,0.37391 -0.0684,0.35459 0.0205,0.72199 0.0308,1.08299 0.0467,0.22164 0.18148,0.88755 0.14007,0.66487 -0.0839,-0.45106 -0.23144,-0.89276 -0.26752,-1.35011 -0.003,-0.043 0.35816,0.0798 0.32096,0.10617 -0.32859,0.23307 -0.59276,-0.0493 -0.25306,0.22511 -0.13269,0.18479 -0.32563,0.33869 -0.3981,0.55433 -0.0585,0.17412 0.0899,0.64685 0.1042,0.84849 0.0336,0.4731 -0.28859,1.10405 0.0639,1.42145 0.81574,0.73464 3.22891,2.41885 3.00671,1.34379 -0.28374,-1.37274 -2.18291,-1.75916 -3.27437,-2.63871 0.0324,-0.0241 0.0582,-0.0824 0.0973,-0.0723 0.0801,0.0206 -0.0173,0.16478 -0.0183,0.24752 -0.002,0.15877 -0.0103,0.31927 0.014,0.47619 0.005,0.0339 0.0766,-0.0784 0.0453,-0.0923 -0.10367,-0.046 -0.22545,-0.0251 -0.33819,-0.0377 0.0181,0.54221 0.017,0.26236 3e-5,0.83957 -0.36296,3.51685 4.61062,4.03016 4.97358,0.5133 v 0 c -0.30737,0.88013 -0.25223,1.02973 -0.28503,0.38415 0.12248,-0.0146 0.26622,0.0271 0.36742,-0.0434 0.41246,-0.28723 -0.68706,-1.64642 0.1291,-1.82978 -0.88434,-0.88569 -2.41871,-1.42758 -2.65303,-2.65708 -0.17028,-0.89352 1.69286,0.72925 2.39568,1.3067 0.29625,0.24342 0.41097,0.67053 0.4716,1.04913 0.0352,0.21997 -0.0801,0.45045 -0.20154,0.63722 -0.0334,0.0513 -0.18963,-0.003 -0.17324,-0.0609 0.0222,-0.0801 0.14787,-0.0759 0.2218,-0.1138 -0.0453,-0.0594 -0.15404,-0.25067 -0.13577,-0.17825 0.0327,0.12975 0.0597,0.41423 0.18118,0.35822 0.13918,-0.0642 0.0195,-0.30599 0.0361,-0.45837 0.0819,-0.75403 0.14855,-1.16191 0.42801,-1.9595 0.0347,-0.0991 -0.002,0.20992 -0.003,0.31491 -0.092,0.22571 -0.23084,0.43767 -0.27605,0.6772 -0.0101,0.0535 0.16247,0.0565 0.12941,0.0997 -0.81837,1.07156 0.58038,-4.51342 0.27845,-0.44024 -0.007,0.0908 -0.16678,0.0732 -0.25017,0.10977 -0.1071,0.0435 -0.27873,0.0233 -0.32129,0.13071 -0.0508,0.12845 -0.0197,0.44233 0.11156,0.39915 0.15946,-0.0525 0.0771,-0.32851 0.143,-0.48289 0.15081,-0.35309 0.84723,-0.38674 0.77787,-0.87874 0.15692,-0.26225 0.12547,-0.21563 0.0913,-0.55263 -0.0167,-0.16433 0.30572,-0.16539 0.38739,-0.30893 0.1061,-0.1865 0.10919,-0.41502 0.16379,-0.62254 0.76915,-0.0564 0.11092,0.12105 0.42262,-0.49942 1.01041,-2.01129 -0.0178,2.6463 0.70925,-2.24222 0.10995,-0.37946 -0.19383,1.89823 -0.11819,1.17933 0.2331,-0.50133 0.45278,-1.00674 0.68133,-1.51021 0.0856,-0.1886 0.13694,-0.39474 0.24714,-0.5701 0.0986,-0.15685 0.27902,-0.25294 0.37105,-0.4137 0.14386,-0.25131 0.21773,-0.53666 0.3266,-0.805 0.76697,-0.51477 0.34683,-0.80645 0.4766,-1.3916 0.0828,-0.37349 0.60138,-0.76661 0.38415,-1.08151 -1.74248,-2.52606 -7.28519,-5.95733 0.16985,-0.92126 -0.0537,0.1659 -0.0306,0.38188 -0.16097,0.49769 -0.0662,0.0588 -0.18166,-0.0995 -0.18774,-0.18786 -0.0301,-0.4372 0.38327,-0.62373 0.51745,-0.98285 0.37546,-1.0048 0.34581,-2.08462 0.32358,-0.72353 0.0649,-0.042 0.15758,-0.0583 0.19473,-0.12615 0.30968,-0.56552 0.42808,-1.22087 0.72455,-1.79342 0.16321,-0.3152 0.42668,-0.57508 0.56819,-0.90062 0.42131,-0.96917 0.5643,-2.047 1.09978,-2.97349 0.21282,-0.49993 0.42234,-1.00126 0.63844,-1.49979 0.24694,-0.56968 1.02185,-1.1462 0.75065,-1.70477 -0.77327,-1.59266 -2.29137,-2.70213 -3.51267,-3.98391 -0.0766,-0.0804 -0.0781,0.32343 0.0327,0.33168 0.28494,0.0212 0.54387,-0.3616 0.81403,-0.26855 0.90706,0.31234 1.67175,0.94158 2.50762,1.41238 -0.0322,0.35274 -0.1928,0.71725 -0.0967,1.05817 0.0348,0.12367 0.28476,-0.0527 0.34872,-0.16407 0.14731,-0.25659 0.1611,-0.56941 0.23661,-0.85548 0.14914,-0.56501 0.19744,-1.1648 0.43732,-1.69767 2.98689,-6.63496 -0.88027,4.17767 1.97649,-4.30393 2.29271,-4.62403 0.63862,-0.7311 2.17356,-6.61563 0.0732,-0.2808 -0.30501,0.74621 -0.0423,0.86954 0.24543,0.11523 0.15512,-0.51965 0.23709,-0.7781 0.85138,-2.6846 0.11031,-0.18959 1.1461,-3.8293 0.34914,-0.76029 2.7202,-5.74453 2.56181,-6.27096 -3.45114,-11.4701 -2.71839,-4.40543 -4.5585,-3.33696 -0.48977,0.28439 -1.57841,-0.17134 -0.89608,0.0957 0.15262,0.1978 0.28183,0.41611 0.45785,0.5934 0.10964,0.11043 0.50961,0.16138 0.38841,0.25899 -0.14132,0.11383 -0.46607,0.0218 -0.5232,-0.15043 -0.29102,-0.8774 0.20941,-2.95796 -0.0173,-3.92855 0,-3.53553 -5,-3.53553 -5,0 z" />
    <path
       style="fill:#00ffff;stroke-width:0.264583"
       id="path15"
       d="M -2.9530831,5.45749 C -0.06115372,5.2754151 2.82635,5.0892942 5.7244024,5.0554024 8.9081691,5.107139 12.087698,5.0515395 15.269279,4.9390077 18.291612,4.83842 21.31619,4.7463352 24.34,4.8132941 c 2.875412,0.052032 5.742535,0.2402856 8.610369,0.4393396 1.866424,0.096376 3.722063,0.3240283 5.59304,0.3366182 1.216793,0.00819 2.871153,-0.057642 4.081434,-0.096852 4.119353,-0.1013032 8.222392,-0.4926002 12.331567,-0.768844 3.276598,-0.1335082 6.532965,-0.5262835 9.800019,-0.7837326 4.158676,-0.2904501 8.321323,-0.4721318 12.48851,-0.5765729 4.522899,-0.175097 9.03986,0.1739718 13.555075,0.3816319 4.407445,0.3014548 8.821161,0.4635825 13.237266,0.5592437 4.05887,0.062786 8.11692,0.047237 12.17411,0.1871006 3.4527,0.129736 6.89724,0.3912473 10.35063,0.5135721 4.58696,0.1066726 9.17609,-0.069118 13.76292,-0.1429403 5.49,-0.084669 10.9802,0.082442 16.46935,0.1697775 5.29621,-0.045745 10.59374,-0.1063995 15.88821,-0.254975 5.08313,-0.091031 10.1674,-0.060852 15.25104,-0.046022 4.50492,-0.1210662 9.01051,-0.1474713 13.51619,-0.2210329 2.4032,-0.0441 4.80647,-0.084068 7.20982,-0.1187275 0.35095,-0.00404 0.70187,-0.011724 1.05285,-0.011708 0.62244,4.762e-4 1.24488,7.937e-4 1.86732,0.00111 0.0337,3.12e-5 0.0674,6.24e-5 0.10111,9.37e-5 3.53553,0.00327 3.54016,-4.99672398 0.005,-4.99999775 v 0 c -0.0344,-3.178e-5 -0.0688,-6.358e-5 -0.1032,-9.536e-5 -0.62352,-3.1485e-4 -1.24703,-6.3235e-4 -1.87055,-0.001101 -0.37479,1.0914e-4 -0.74951,0.007472 -1.12427,0.012229 -2.40654,0.0347086 -4.813,0.0747094 -7.21939,0.11887499 -4.47359,0.0731443 -8.94714,0.0980727 -13.41992,0.22038701 -5.1354,-0.0149799 -10.27145,-0.0454402 -15.40632,0.0479801 -5.22107,0.14743299 -10.44521,0.20474937 -15.66799,0.25362776 -5.54248,-0.08815633 -11.08602,-0.25642511 -16.62937,-0.16976246 -4.5012,0.07249087 -9.00466,0.24466484 -13.50598,0.14540728 -3.45488,-0.12161093 -6.90073,-0.38713178 -10.35509,-0.51372791 -4.07851,-0.14014971 -8.15778,-0.12800013 -12.23798,-0.18889038 -4.375635,-0.0944928 -8.748748,-0.25661882 -13.115796,-0.55513908 -4.633511,-0.2128684 -9.268796,-0.5665433 -13.910181,-0.3853299 -4.256738,0.1070912 -8.508904,0.2930443 -12.756906,0.5905381 -3.247591,0.25734992 -6.484765,0.64553263 -9.741844,0.77947644 C 50.569142,0.00779586 46.523637,0.393671 42.462127,0.49504782 41.484642,0.52704092 39.706788,0.59525926 38.696915,0.59160896 37.290933,0.5865269 35.90019,0.43758228 34.499814,0.33779121 34.099007,0.30922978 33.697653,0.28901951 33.296571,0.26463368 30.349002,0.06005949 27.401903,-0.13131826 24.446623,-0.1855689 21.328213,-0.24978153 18.209337,-0.1657994 15.092516,-0.05786661 11.949776,0.05332327 8.8093559,0.10667583 5.6644119,0.05576241 2.6675371,0.09258115 -0.31887625,0.27981179 -3.3093183,0.47019659 -6.8358673,0.72209294 -6.479632,5.7093863 -2.9530831,5.45749 Z" />
    <path
       style="fill:#00ffff;stroke-width:0.264583"
       id="path16"
       d="m 205.86161,3.7898324 c 0,1.4242491 0,2.8484983 0,4.2727472 0.10566,1.6766653 0.33487,3.3423314 0.48886,5.0150504 0.0678,2.492685 -0.0179,4.987068 -0.0552,7.479851 -0.0454,2.870349 0.13093,5.738766 0.21816,8.607217 0.0465,2.95062 0.14596,5.903981 0.055,8.854392 -0.11399,2.261372 -0.23119,4.521954 -0.28623,6.785655 0.0793,2.198081 -0.0305,4.396573 0.0347,6.594319 0.14533,2.518912 0.21664,5.040143 0.25624,7.562627 0.074,4.186939 -0.0202,8.373044 -0.0206,12.560073 -0.0698,3.351995 0.12845,6.696699 0.27911,10.043027 0.13593,2.635118 0.0499,5.273985 -0.0104,7.910137 -0.0911,2.775566 -0.15045,5.551807 -0.18221,8.328641 -0.0148,2.743011 -0.19177,5.482211 -0.29768,8.222821 -0.16194,2.42178 0.0143,4.83753 0.24106,7.24766 0.3447,2.72985 0.72168,5.44931 0.91741,8.1949 0.0126,0.55556 0.0388,1.11099 0.0378,1.6667 -0.002,1.39791 -0.0809,2.43431 -0.12447,3.84046 -0.0723,2.33362 -0.0721,4.66863 -0.0802,7.00306 0.0586,5.10326 -0.0883,10.20433 -0.20239,15.30563 -0.0872,3.88634 -0.12031,7.77356 -0.13589,11.66074 0.0678,3.50469 -0.1633,7.00384 -0.18832,10.50693 0.0414,3.56833 0.11016,7.1362 0.14599,10.70462 0.14011,4.29586 0.0937,8.59529 0.0733,12.89267 0.0381,3.90499 -0.14353,7.80597 -0.25852,11.70814 -0.0364,3.38108 -0.22744,6.7564 -0.37311,10.13372 -0.0399,3.26232 -0.38617,6.50741 -0.60126,9.76059 -0.18477,3.72849 -0.5613,7.44268 -0.79394,11.16817 -0.20521,3.14776 -0.24229,6.30225 -0.26421,9.45548 0.0217,2.02458 -0.0201,4.04624 -0.1122,6.06848 -0.15994,3.53191 4.83495,3.75809 4.99488,0.22618 v 0 c 0.094,-2.08603 0.13953,-4.17164 0.1172,-6.26002 0.0211,-3.06099 0.0555,-6.12327 0.25464,-9.17897 0.23154,-3.71946 0.60974,-7.42748 0.79277,-11.14999 0.21687,-3.29106 0.56638,-6.57422 0.60747,-9.87451 0.14658,-3.40004 0.33828,-6.79813 0.37559,-10.20192 0.1161,-3.94332 0.29868,-7.8855 0.26063,-11.83167 0.0205,-4.32201 0.0669,-8.64611 -0.0735,-12.96659 -0.0356,-3.54081 -0.10254,-7.08108 -0.14584,-10.62176 0.0205,-3.50719 0.26119,-7.01066 0.18838,-10.51953 0.0154,-3.85659 0.0482,-7.7132 0.13468,-11.56894 0.11481,-5.13285 0.26198,-10.26548 0.20361,-15.40028 0.008,-2.27306 0.006,-4.547 0.0762,-6.81928 0.0505,-1.62881 0.12933,-2.53375 0.12703,-4.16324 -8e-4,-0.63467 -0.0328,-1.26892 -0.0492,-1.90338 -0.20153,-2.78209 -0.56677,-5.54012 -0.92657,-8.30526 -0.20652,-2.19035 -0.37777,-4.38453 -0.22275,-6.58584 0.10752,-2.78587 0.28703,-5.57031 0.30108,-8.35869 0.0314,-2.758265 0.0909,-5.515922 0.18126,-8.272928 0.0612,-2.748745 0.15001,-5.500293 0.007,-8.247959 -0.14747,-3.271298 -0.34427,-6.54082 -0.27404,-9.817735 1.4e-4,-4.213344 0.0952,-8.425794 0.0199,-12.63905 -0.0402,-2.549165 -0.11048,-5.09724 -0.25815,-7.642768 -0.0725,-2.104014 0.0578,-4.210145 -0.0337,-6.314527 0.0543,-2.25467 0.17488,-4.506021 0.2855,-6.758482 0.0872,-3.050754 -3e-5,-6.103752 -0.0551,-9.154602 -0.0851,-2.792886 -0.25716,-5.585777 -0.2164,-8.380412 0.0399,-2.670817 0.1407,-5.344393 0.0345,-8.014478 -0.14087,-1.520092 -0.32778,-3.0350916 -0.46766,-4.5551294 0,-1.4242489 0,-2.8484981 0,-4.2727472 0,-3.53553383 -5,-3.53553383 -5,0 z" />
    <path
       style="fill:#00ffff;stroke-width:0.264583"
       id="path17"
       d="m 205.86161,8.8591381 c 0,3.9517959 0,7.9035929 0,11.8553889 0,4.396198 0,8.792396 0,13.188596 -0.0209,4.430805 0.0196,8.861002 0.10872,13.290828 0.11335,4.446481 0.17738,8.893127 0.34585,13.337955 0.17836,4.708403 0.23975,9.419984 0.27564,14.131269 -0.0196,4.774329 -0.2635,9.542309 -0.45106,14.311677 -0.16275,4.773282 -0.28706,9.549892 -0.22252,14.325998 0.17178,3.88603 0.16973,7.76894 -0.0992,11.64913 -0.23477,3.73716 -0.74739,7.44843 -1.22194,11.16047 -0.47088,3.00228 -0.31497,6.02968 -0.14555,9.04656 0.1575,2.54413 0.22471,5.09213 0.26109,7.64045 -0.11629,2.94006 -0.53502,5.85748 -0.77497,8.7897 -0.22236,3.43423 -0.2974,6.87448 -0.53735,10.3079 -0.22636,3.28757 -0.53456,6.5678 -0.72018,9.85814 -0.11387,3.60081 0.22207,7.19675 0.60639,10.77284 0.54777,3.52096 0.97249,7.05868 1.37671,10.59842 0.31546,2.99654 0.56678,5.99655 0.70775,9.00639 0.12077,2.71698 -0.0408,5.4395 -0.29373,8.14446 -0.35237,3.27182 -0.54388,6.55618 -0.64929,9.84418 -0.16002,3.53973 -0.44295,7.07104 -0.60922,10.61056 -0.14747,3.55496 -0.19014,7.11292 -0.21181,10.67049 0.0906,2.96809 0.1727,5.93849 0.46755,8.89427 0.35538,3.51763 5.33006,3.01504 4.97467,-0.50259 v 0 c -0.28474,-2.778 -0.34376,-5.57171 -0.44231,-8.36128 0.0212,-3.48961 0.0625,-6.97961 0.20642,-10.46669 0.16683,-3.56437 0.4552,-7.12034 0.61215,-10.68514 0.10139,-3.18698 0.28792,-6.37028 0.63042,-9.54145 0.271,-2.93694 0.44404,-5.89197 0.30962,-8.84168 -0.14733,-3.12094 -0.40617,-6.23205 -0.73455,-9.33914 -0.40346,-3.52888 -0.82214,-7.05669 -1.37312,-10.5662 -0.35676,-3.30513 -0.67385,-6.62831 -0.58555,-9.95652 0.18342,-3.2683 0.49301,-6.52632 0.71602,-9.79195 0.2366,-3.41366 0.31986,-6.83346 0.53284,-10.24822 0.25165,-3.09099 0.71017,-6.16611 0.79102,-9.26811 -0.0376,-2.61797 -0.10699,-5.23562 -0.26844,-7.84931 -0.15244,-2.71186 -0.31832,-5.43284 0.11306,-8.13207 0.48687,-3.80883 1.01011,-7.61713 1.25054,-11.45174 0.27379,-4.01736 0.29128,-8.03762 0.11049,-12.06096 -0.0663,-4.68754 0.0622,-9.375703 0.21913,-14.060497 0.19051,-4.847489 0.43805,-9.69364 0.45477,-14.54622 -0.0363,-4.761741 -0.0987,-9.523775 -0.27908,-14.2826 -0.16751,-4.415319 -0.23021,-8.832466 -0.34328,-13.249425 -0.0892,-4.396182 -0.12803,-8.792732 -0.10771,-13.189895 0,-4.3962 0,-8.792398 0,-13.188596 0,-3.951796 0,-7.903593 0,-11.8553889 0,-3.5355336 -4.99999,-3.5355336 -4.99999,0 z" />
    <path
       style="fill:#00ffff;stroke-width:0.264583"
       id="path18"
       d="m 205.9856,246.17065 c 0.50604,2.71392 0.93643,5.43866 1.26642,8.17954 0.35744,3.15263 0.25124,6.3331 0.20694,9.49889 -0.13564,3.22509 -0.31197,6.44822 -0.49598,9.67084 -0.23706,3.72904 -0.24344,7.46628 -0.3709,11.19907 -0.17726,3.9696 -0.26276,7.94206 -0.31585,11.91496 0.025,2.6062 -0.0731,5.20734 -0.26163,7.80595 -0.055,0.68831 -0.1032,1.37689 -0.13846,2.06645 -0.18052,3.53094 4.81296,3.78621 4.99347,0.25529 v 0 c 0.0334,-0.65423 0.0798,-1.30746 0.13192,-1.96051 0.19503,-2.69658 0.29866,-5.39609 0.27426,-8.10043 0.0525,-3.93866 0.13747,-7.87685 0.31341,-11.81221 0.12451,-3.69435 0.13348,-7.39288 0.36565,-11.08353 0.18809,-3.29422 0.36953,-6.589 0.50362,-9.88595 0.0474,-3.38937 0.15028,-6.79362 -0.2425,-10.16809 -0.34072,-2.8151 -0.77774,-5.61474 -1.2984,-8.40226 -0.58124,-3.48743 -5.51321,-2.66543 -4.93197,0.82199 z" />
    <path
       style="fill:#00ffff;stroke-width:0.264583"
       id="path19"
       d="m 205.07467,250.75378 c -0.41878,3.52042 -0.48425,7.06953 -0.64928,10.60752 -0.0507,4.76376 -0.21147,9.52054 -0.53425,14.27373 -0.31845,4.46347 -0.57557,8.93188 -0.66815,13.40596 -0.0523,4.70498 -0.0239,9.41043 -0.0127,14.11557 -0.0323,2.00099 0.0409,4.00069 0.12165,5.99946 0.14341,3.53263 5.13929,3.3298 4.99588,-0.20283 v 0 c -0.079,-1.93514 -0.15056,-3.8712 -0.11754,-5.80856 -0.0111,-4.66693 -0.0391,-9.33418 0.0116,-14.00098 0.0896,-4.39555 0.3459,-8.78541 0.65777,-13.17054 0.32387,-4.78821 0.49325,-9.58011 0.54026,-14.37903 0.16133,-3.46459 0.22312,-6.94033 0.63418,-10.38762 0.32009,-3.52101 -4.65938,-3.97369 -4.97947,-0.45268 z" />
    <path
       style="fill:#00ffff;stroke-width:0.264583"
       id="path20"
       d="m -0.10756968,297.02413 c 2.49120798,0.2227 4.98763638,0.25448 7.48590708,0.19116 2.9126226,-0.0915 5.8172686,-0.33657 8.7279446,-0.47442 2.214226,-0.12049 4.434007,-0.061 6.647622,-0.17754 1.607866,-0.20309 3.221509,-0.1185 4.834769,-0.061 2.107917,0.0795 4.217384,0.0919 6.326507,0.1033 3.459787,0.0511 6.917751,0.20409 10.377628,0.2808 3.451069,0.0718 6.902868,0.0929 10.354577,0.10247 3.64595,0.0605 7.288622,-0.0611 10.932226,-0.16939 3.429743,-0.17544 6.867602,-0.31384 10.28596,-0.65926 0.76404,-0.0772 4.953437,-0.59142 5.747107,-0.6881 5.122135,-0.61696 10.241087,-1.21388 15.390132,-1.54977 4.73177,-0.26321 9.47199,-0.30141 14.20981,-0.3256 3.11744,0.0495 6.23092,0.21723 9.34203,0.41225 3.4217,0.0955 6.82256,0.49176 10.23833,0.6731 4.26403,0.13758 8.53158,0.0914 12.79713,0.0794 5.12318,0.0421 10.24356,-0.13226 15.36448,-0.25347 4.73335,-0.10954 9.46805,-0.13173 14.20245,-0.14674 3.9926,0.1342 7.98122,0.1859 11.97552,0.13063 5.01304,0 10.02181,0.23291 15.03066,0.4114 2.55158,0.14372 5.08563,-0.068 7.61706,-0.34891 0.40877,0.0534 1.39555,-0.26564 1.76561,-0.1229 3.53059,0.18688 3.79489,-4.80613 0.26429,-4.993 v 0 c -0.86513,-0.0212 -1.72138,0.0457 -2.58143,0.14642 -2.28946,0.25411 -4.57876,0.46067 -6.88748,0.32155 -5.09122,-0.18143 -10.18243,-0.41754 -15.27796,-0.41408 -3.97659,0.0552 -7.9471,0 -11.92212,-0.13107 -4.76856,0.0151 -9.53742,0.0377 -14.30492,0.14811 -5.08619,0.12039 -10.17182,0.2943 -15.26025,0.2521 -4.17388,0.0116 -8.34962,0.0564 -12.52212,-0.0726 -3.39857,-0.17447 -6.78187,-0.58057 -10.18644,-0.67011 -3.2237,-0.20206 -6.45004,-0.37518 -9.6804,-0.42198 -4.83815,0.0249 -9.67874,0.0651 -14.510605,0.3362 -5.241901,0.34378 -10.453997,0.94565 -15.668427,1.57578 -0.534344,0.0651 -4.993864,0.61135 -5.562121,0.66908 -3.328114,0.33814 -6.675561,0.47085 -10.014807,0.64381 -3.58952,0.10668 -7.178005,0.22797 -10.769856,0.16719 -3.41942,-0.01 -6.838929,-0.0302 -10.257716,-0.10126 -3.487777,-0.0772 -6.973578,-0.23233 -10.461352,-0.28194 -2.058705,-0.0111 -4.117761,-0.0227 -6.175291,-0.10019 -1.763789,-0.0629 -3.530716,-0.14481 -5.288971,0.0654 -2.199391,0.12907 -4.408439,0.0387 -6.6086,0.17553 -2.874419,0.13663 -5.743018,0.37578 -8.6191431,0.47045 -2.3045351,0.0598 -4.6067954,0.0327 -6.90506187,-0.17227 -3.52101413,-0.32009 -3.97369293,4.65937 -0.45267871,4.97946 z" />
    <path
       style="fill:#00ffff;stroke-width:0.264583"
       id="path21"
       d="m 47.597848,296.98942 c 4.986681,-0.26628 9.980358,-0.2349 14.971858,-0.20093 6.923545,0.0608 13.843058,-0.18478 20.763039,-0.36025 4.702516,-0.0544 9.404419,0.0227 14.102352,0.22658 4.422573,0.15659 8.844793,0.33486 13.263603,0.57696 5.01966,0.30458 10.0488,0.39896 15.07624,0.4659 4.89065,-0.005 9.77812,0.0792 14.66646,0.21839 4.68845,0.13335 9.37874,0.16788 14.06878,0.19021 5.34571,0.0175 10.69147,0.0143 16.03721,0.0137 4.81096,0.10814 9.62336,0.19466 14.4339,0.0329 4.00021,-0.14259 7.99982,0.0426 11.9975,0.17068 2.60441,0.14039 5.20564,0.3321 7.81032,0.46791 1.36412,0.0718 2.73045,0.0782 4.0961,0.0821 1.00591,0.0377 2.01709,-0.0464 3.02257,-0.003 0.0996,0.005 -0.19926,0.005 -0.29889,0.007 3.41944,0.89855 4.69019,-3.93727 1.27074,-4.83582 v 0 c -0.32645,-0.0572 -0.65028,-0.13211 -0.97934,-0.1715 -0.98595,-0.11801 -2.01179,0.0969 -3.00079,0.003 -1.28368,-0.004 -2.56803,-0.008 -3.85029,-0.0753 -2.638,-0.1373 -5.27235,-0.33425 -7.91031,-0.47213 -4.10773,-0.1316 -8.21748,-0.31847 -12.32775,-0.17033 -4.75392,0.16396 -9.50986,0.0651 -14.26423,-0.0358 -5.33765,0 -10.67533,0.003 -16.01296,-0.0137 -4.65051,-0.0222 -9.30127,-0.0561 -13.95021,-0.18826 -4.91362,-0.13993 -9.8264,-0.225 -14.74232,-0.21997 -4.95852,-0.0659 -9.91877,-0.15814 -14.8696,-0.45887 -4.43771,-0.24243 -8.87871,-0.42304 -13.320187,-0.57973 -4.812284,-0.20849 -9.628717,-0.28747 -14.445657,-0.22968 -6.866422,0.17415 -13.732357,0.41868 -20.602316,0.35877 -5.002556,-0.0339 -10.008245,-0.0714 -15.005822,0.20082 -3.535535,0 -3.535535,4.99999 0,4.99999 z" />
    <path
       style="fill:#00ffff;stroke-width:0.264583"
       id="path22"
       d="m -1.0022578,2.623159 c -0.6734541,1.9240013 -0.7464407,3.9371521 -0.6583989,5.9513478 0.1810489,1.7208602 0.2748602,3.4412142 0.2984034,5.1716112 -0.046366,1.931625 -0.13449,3.856156 -0.104824,5.790271 -0.052708,1.461528 0.2194398,2.900122 0.3658093,4.346219 0.067744,0.669297 0.087072,1.495982 0.11197482,2.161643 -0.0646186,2.822878 -0.20555472,5.644503 -0.43844292,8.458466 -0.2835072,3.580418 -0.6419619,7.153674 -0.8522131,10.739477 -0.094828,1.910268 -0.3325102,3.813124 -0.3787606,5.725829 -0.00514,0.212646 -0.2126625,0.627682 -2.106e-4,0.638125 1.68059115,0.08263 3.35514659,-0.260472 5.0327199,-0.390708 C 2.7102503,46.733205 2.6666764,42.237482 2.6310037,37.746627 2.6626425,32.852211 2.3738756,27.964775 2.3338048,23.072023 2.3121998,18.613677 2.542341,14.156892 2.9395914,9.7173583 3.0657694,8.1138577 3.2674374,6.5177791 3.4664803,4.9221426 3.5660073,4.1242805 3.6152679,3.2812617 3.8255466,2.5019083 c -0.9329515,2.2275073 0.1545175,0.361182 -4.58658025,0.362682 -0.15129134,4.79e-5 -0.0296568,0.3021367 -0.0231008,0.453286 0.0786212,1.8126649 0.28114153,3.6284577 0.41278944,5.4378319 0.32458968,4.4765808 0.71692555,8.9472848 1.12462227,13.4168708 0.34350604,3.283174 0.37637664,6.584904 0.53388974,9.878757 0.1396272,2.876921 0.09785,5.754926 0.2612459,8.631928 0.3020696,3.021386 0.5801098,6.042472 0.72484,9.075817 0.1795588,2.764197 -0.1097041,5.518412 -0.4130472,8.261474 -0.425498,3.634269 -0.4969327,7.295311 -0.5591602,10.949824 -0.089185,2.805903 0.044746,5.618347 -0.090511,8.423121 -0.052096,1.080281 -0.22971872,2.858363 -0.32990714,3.934688 -0.48198396,4.236762 -1.03117964,8.465452 -1.22100706,12.727556 -0.14579317,4.569253 0.28464041,9.126876 0.60210029,13.679406 0.30870144,5.15083 0.16932191,10.30879 0.0519929,15.46256 -0.0803125,3.53462 4.91839711,3.6482 4.99870981,0.11358 v 0 C 5.4327912,118.00364 5.5716919,112.69155 5.2495977,107.38719 4.944989,103.02257 4.5267815,98.653337 4.654912,94.272673 4.8312719,90.092058 5.4013143,85.94681 5.8592186,81.790383 5.9844022,80.438526 6.1451443,78.858858 6.209234,77.507514 6.3427237,74.692866 6.2138616,71.87099 6.3003253,69.055233 6.359528,65.555936 6.4227909,62.049963 6.8299312,58.569944 7.1620087,55.564968 7.4606066,52.547138 7.2675174,49.519659 7.1207047,46.470789 6.8525926,43.432875 6.5401933,40.396689 6.3739886,37.535281 6.4289762,34.672172 6.2813773,31.810793 6.1180614,28.445785 6.0864948,25.072426 5.732604,21.718373 5.327652,17.279143 4.9377589,12.838824 4.6154554,8.3926369 4.4821855,6.5633427 4.3788742,4.7227717 4.1981477,2.897324 4.1472439,2.3831678 4.4552234,1.6160519 4.0069486,1.3591522 -0.2381913,-1.0736748 0.08308862,-0.79122618 -1.04433,1.3686383 -1.6085078,3.9622375 -1.7199354,6.6443317 -2.0406612,9.2734166 -2.4493645,13.874902 -2.6909498,18.493607 -2.6660149,23.114468 c 0.042926,4.891916 0.3250216,9.778436 0.297177,14.671953 0.034785,4.361902 0.081402,8.728635 -0.2453225,13.082243 1.65174055,0.241334 3.28865062,0.628975 4.9552217,0.724006 0.1469763,0.0084 -0.00613,-0.29445 -0.00312,-0.441635 0.00592,-0.290004 0.012629,-0.58013 0.029909,-0.86968 0.094503,-1.583539 0.2594051,-3.163099 0.3436847,-4.747437 0.2065539,-3.5463 0.5655048,-7.079845 0.8438668,-10.620891 C 3.8024085,31.898698 3.96138,28.875495 4.0069775,25.851171 3.9656403,24.810488 3.9595708,24.262751 3.8552284,23.224471 3.7292846,21.971243 3.4771459,20.726208 3.5323205,19.458793 3.501966,17.527297 3.6022026,15.606635 3.6372673,13.676891 3.6121699,11.893297 3.5230966,10.11736 3.3340278,8.3440121 3.2649932,6.9430939 3.2648779,5.5455637 3.7411585,4.2042979 4.8591924,0.85019593 0.11577613,-0.73094288 -1.0022578,2.623159 Z" />
    <path
       style="fill:#00ffff;stroke-width:0.264583"
       id="path23"
       d="m -0.2433761,50.892807 c -0.0373573,4.215834 -0.30650807,8.429146 -0.54025046,12.638318 -0.35201064,4.321918 -0.35479064,8.654502 -0.31342274,12.986509 0.012634,4.185327 0.38670352,8.357272 0.59251836,12.535617 0.18969988,4.852622 0.23684471,9.70874 0.36433172,14.563209 0.0337835,6.75544 -0.0274036,13.50938 0.05174364,20.26468 0.07963994,4.4391 0.09268351,8.87823 0.08582102,13.31785 -0.00535113,3.53553 4.99464306,3.5431 4.99999426,0.008 v 0 c 0.00661,-4.46168 -0.00606,-8.92288 -0.086159,-13.38404 -0.079541,-6.77994 -0.015433,-13.5581 -0.053123,-20.33775 C 4.7295802,98.592409 4.6828588,93.697921 4.4894042,88.807059 4.2865111,84.69477 3.9186381,80.588794 3.9027219,76.469805 3.862243,72.246087 3.8620207,68.021982 4.208691,63.808191 c 0.2385801,-4.30144 0.512808,-8.607046 0.5479328,-12.915384 0,-3.535534 -4.9999999,-3.535534 -4.9999999,0 z" />
    <path
       style="fill:#00ffff;stroke-width:0.264583"
       id="path24"
       d="m 1.2610398,108.93159 c 0.1194066,4.35409 -0.46046136,8.66947 -1.07387906,12.96757 -0.69832928,5.08796 -1.20945844,10.19863 -1.75676244,15.30429 -0.378396,3.48942 -0.4887123,6.99768 -0.5409847,10.50446 0.087719,3.87894 0.1762981,7.75936 0.3340927,11.63623 0.2047611,4.39353 0.5377339,8.77759 0.591136,13.17685 -0.015735,4.46825 -0.1750149,8.9409 -0.5565451,13.39343 -0.485738,4.63485 -0.9311733,9.26604 -1.1861981,13.92025 -0.095518,4.09122 -0.065374,2.06964 -0.092831,6.06469 -0.023908,3.53546 4.9759783,3.56926 4.9998856,0.0338 v 0 c 0.025673,-3.86143 -0.00246,-1.91953 0.085496,-5.82566 0.2508935,-4.60365 0.6975714,-9.18363 1.1755698,-13.76829 0.3916894,-4.61504 0.5632117,-9.25005 0.5742252,-13.88129 -0.058069,-4.44629 -0.3812254,-8.87768 -0.594909,-13.31797 -0.1553292,-3.78415 -0.2371773,-7.57186 -0.3304715,-11.35792 0.049459,-3.35353 0.1516219,-6.70863 0.5130522,-10.04567 0.5411148,-5.04792 1.0460022,-10.10085 1.7351828,-15.13144 0.6455722,-4.53195 1.2437885,-9.08313 1.123941,-13.67334 0,-3.53553 -5.0000001,-3.53553 -5.0000001,0 z" />
    <path
       style="fill:#00ffff;stroke-width:0.264583"
       id="path25"
       d="m 0.1832535,143.76064 c 0.0900621,3.38822 0.42187212,6.76038 0.68785894,10.13735 0.30635866,3.9137 0.45607166,7.827 0.28153666,11.74924 -0.23405782,4.32864 -0.49907771,8.65547 -0.73120183,12.98421 -0.0304881,0.68258 -0.072356,1.36476 -0.0914645,2.04775 -0.0403535,1.44237 -0.0215934,2.88593 -0.05794,4.3284 -0.0549463,2.18063 -0.16823235,4.36102 -0.25426258,6.54059 -0.22439386,4.75305 -0.53368994,9.50139 -0.92645013,14.24339 -0.33905736,4.04343 -0.49770976,8.09809 -0.64030646,12.15211 -0.1241254,3.53336 4.872792,3.7089 4.9969176,0.17554 v 0 c 0.1394595,-3.97497 0.2940889,-7.9506 0.6263479,-11.91519 0.3981955,-4.81369 0.7127599,-9.63374 0.939601,-14.45866 0.087653,-2.22082 0.2017257,-4.44236 0.2576123,-6.66427 0.03503,-1.39269 0.014883,-2.78645 0.053511,-4.17905 0.018531,-0.66806 0.05951,-1.33531 0.089265,-2.00297 0.2328524,-4.34533 0.4993823,-8.68872 0.7336214,-13.03399 0.176617,-4.12597 0.034863,-8.24311 -0.2922397,-12.35989 -0.2646492,-3.35696 -0.5939687,-6.70897 -0.6834812,-10.07716 -0.2351802,-3.5277 -5.22410593,-3.19511 -4.9889254,0.3326 z" />
    <path
       style="fill:#00ffff;stroke-width:0.264583"
       id="path26"
       d="M 1.2195067,69.926517 C 0.95649149,75.238191 1.0659871,80.555496 1.0525883,85.870639 1.119093,91.932849 0.82609737,97.984454 0.51867741,104.036 c -0.24186268,4.55006 -0.32509744,9.10608 -0.36930502,13.66165 -0.02608,3.48433 -0.0234208,6.96879 -0.021579,10.45319 0.0063,3.14522 -0.1634997,6.28798 -0.26684013,9.43104 -0.12751633,2.90354 -0.0861646,5.80493 0.11803221,8.70312 0.21850967,2.24452 0.52456739,4.48211 0.56557262,6.74013 0.0215601,1.18723 -0.0303637,2.6806 -0.0606917,3.86129 -0.21956372,4.19973 -0.7880673,8.37168 -1.20954971,12.55446 -0.41548228,4.62503 -0.67267038,9.25803 -0.76850338,13.89997 -0.071879,3.53481 4.9270879,3.63646 4.9989665,0.10165 v 0 c 0.090216,-4.50863 0.3441708,-9.00817 0.7443629,-13.50051 0.4336772,-4.30709 1.0222735,-8.60295 1.2331128,-12.92867 0.035037,-1.39548 0.086524,-2.8126 0.05743,-4.20888 -0.047984,-2.30289 -0.3383733,-4.58691 -0.5733799,-6.87531 -0.1971738,-2.72491 -0.2262902,-5.45288 -0.1080511,-8.18299 0.1051121,-3.19867 0.2773315,-6.39703 0.2695385,-9.59795 -0.00183,-3.46737 -0.00451,-6.9348 0.021344,-10.4021 0.043404,-4.48713 0.1247878,-8.97471 0.3631004,-13.45642 C 5.8237397,98.157759 6.1183411,92.025638 6.052572,85.882984 6.0652191,80.651333 5.9567166,75.417631 6.2125947,70.189311 6.3984195,66.658664 1.4053303,66.395869 1.2195067,69.926517 Z" />
    <path
       style="fill:#00ffff;stroke-width:0.264583"
       id="path27"
       d="m -2.5,195.73783 c -0.056271,2.97555 0.5124069,5.91187 1.153785,8.80286 0.1194429,0.47866 0.2337001,0.95864 0.35832853,1.43598 0.37029312,1.41824 0.39730235,1.2951 0.66721764,2.72815 0.30860499,1.63845 0.50037195,3.29847 0.69708227,4.95286 0.45601546,4.04799 0.39420607,8.12513 0.43474494,12.19137 0.0137845,4.13765 -0.29150696,8.26528 -0.46292907,12.39708 -0.14113744,3.66091 -0.18836528,7.32434 -0.21115139,10.98759 -0.04910686,3.5887 -0.20421418,7.1706 -0.17277672,10.76063 0.03143729,3.5354 5.0312395,3.49094 4.9998022,-0.0444 v 0 c -0.0322,-3.56482 0.1282597,-7.12148 0.172878,-10.68513 0.022352,-3.6046 0.068433,-7.20938 0.2069634,-10.81169 0.1744226,-4.21734 0.4866185,-8.43046 0.466965,-12.65387 -0.042346,-4.24752 0.014989,-8.50617 -0.4697087,-12.73388 -0.2170787,-1.81362 -0.4306276,-3.63215 -0.7769426,-5.42705 -0.3122856,-1.61852 -0.3189282,-1.41596 -0.7016012,-2.87497 -0.114132,-0.43515 -0.218889,-0.8727 -0.3283333,-1.30905 C 2.9682956,200.92098 2.4478175,198.34667 2.5,195.73783 c 0,-3.53554 -5,-3.53554 -5,0 z" />
    <path
       style="fill:#00ffff;stroke-width:0.264583"
       id="path28"
       d="m 0.50883184,204.01211 c 0,3.48658 0,6.97316 0,10.45974 -9.2604e-4,5.49733 0.18008343,10.99276 0.27291033,16.48913 0.080382,5.26369 0.0931727,10.5281 0.10252493,15.7923 0.002985,3.35608 0.001926,1.67576 0.003166,5.04097 0.001302,3.53554 5.0013025,3.53369 4.9999997,-0.002 v 0 c -0.00124,-3.3693 -1.823e-4,-1.68663 -0.00317,-5.04802 -0.0094,-5.28939 -0.022347,-10.57898 -0.1032301,-15.86785 -0.092383,-5.46823 -0.2723949,-10.93553 -0.2721973,-16.40469 0,-3.48658 0,-6.97316 0,-10.45974 0,-3.53553 -4.99999993,-3.53553 -4.99999993,0 z" />
    <path
       style="fill:#00ffff;stroke-width:0.264583"
       id="path29"
       d="m -0.2433761,249.47571 c -0.004226,3.54369 -0.25687081,7.08118 -0.43954806,10.61869 -0.1662672,3.52402 -0.31207976,7.05092 -0.25420274,10.57911 0.35575888,4.8324 0.4411469,9.66954 0.36426859,14.51271 -0.18368023,5.8061 -0.45869129,11.60807 -0.73066709,17.41048 -0.1655253,3.53166 4.8289919,3.76577 4.9945171,0.23411 v 0 c 0.2743647,-5.85436 0.5518634,-11.70824 0.7355374,-17.56632 0.075626,-4.89752 0.00167,-9.79054 -0.3643961,-14.677 -0.061752,-3.41341 0.09324,-6.82584 0.2482927,-10.23531 0.1870125,-3.62338 0.4441299,-7.2467 0.4461981,-10.87647 0,-3.53554 -4.9999999,-3.53554 -4.9999999,0 z" />
    <path
       style="fill:#00ffff;stroke-width:0.264583"
       id="path30"
       d="m 0.50883184,268.59582 c 0.16103357,3.64164 0.23548189,7.28146 0.0944475,10.92448 -0.15369029,4.40201 -0.48610831,8.79354 -0.84767066,13.18247 -0.19289779,2.85065 -0.24826497,5.70764 -0.31432511,8.56321 -0.0815934,3.53457 4.91707483,3.64998 4.99866843,0.11539 v 0 c 0.063507,-2.75715 0.1161325,-5.51566 0.2987918,-8.26828 0.3672504,-4.46215 0.704446,-8.92702 0.8609094,-13.40239 0.1391399,-3.70629 0.082647,-7.41014 -0.090821,-11.11488 0,-3.53553 -4.99999995,-3.53553 -5.00000036,0 z" />
    <path
       style="fill:#00ffff;stroke-width:0.264583"
       id="path31"
       d="m 0.55935747,258.84845 c 0.37749612,4.35644 0.51471393,8.72994 0.70055753,13.09773 0.1596405,6.34312 0.4223478,12.67915 0.8021762,19.01259 0.2116614,3.5292 5.2026931,3.22987 4.9910318,-0.29932 v 0 C 6.6749942,284.3549 6.4147972,278.04776 6.2553929,271.73359 6.0677496,267.32579 5.9285245,262.91223 5.5482833,258.51586 5.3131029,254.98815 0.32417726,255.32075 0.55935747,258.84845 Z" />
    <path
       style="fill:#00ffff;stroke-width:0.264583"
       id="path32"
       d="M 27.150718,2.8257349 C 25.19551,2.9781129 23.311506,3.5233827 21.471503,4.1728527 19.417298,4.8970535 17.450755,5.8152574 15.519373,6.8154546 13.766372,7.6315347 12.169138,8.708088 10.540557,9.7371547 8.9989741,10.62631 7.6145368,11.711454 6.3432142,12.950109 5.1074999,14.08931 4.2907259,15.564606 3.4383831,16.990496 c -1.1860845,1.847276 -2.3198616,3.712185 -3.28658455,5.684392 -0.9411047,1.949824 -1.55094535,4.028322 -2.13419655,6.105576 -0.3254316,1.448528 -0.7253568,2.877754 -1.1166851,4.309325 -0.9322524,3.410413 3.89079739,4.728816 4.8230499,1.318405 v 0 c 0.3882783,-1.420421 0.7881031,-2.838071 1.1074889,-4.276135 0.5016738,-1.786816 1.0093664,-3.580712 1.8123664,-5.261328 0.9007745,-1.848586 1.9834305,-3.580706 3.086263,-5.314832 0.6315027,-1.056456 1.1988826,-2.181704 2.1092411,-3.031269 1.0172638,-0.99991 2.1311458,-1.855632 3.3758438,-2.56297 1.50566,-0.9549 2.978794,-1.957059 4.604578,-2.706805 1.730184,-0.897104 3.487917,-1.7252352 5.329912,-2.3720351 1.472643,-0.5310066 2.983663,-0.9728248 4.553217,-1.0876664 3.51391,-0.3904345 2.961752,-5.359853 -0.552159,-4.9694186 z" />
    <path
       style="fill:#00ffff;stroke-width:0.264583"
       id="path33"
       d="M 16.55159,3.1827059 C 13.613226,4.483033 10.831061,6.1095744 8.1246423,7.8334266 5.7151894,9.5702775 3.2442412,11.318438 1.1980885,13.489986 c 0.9384854,1.331618 1.5329279,2.990322 2.8154562,3.994853 0.4013303,0.314339 0.8985332,-0.482456 1.3370285,-0.74245 1.1773394,-0.698073 2.3141995,-1.462478 3.4826474,-2.175334 0.519022,-0.316649 4.7266594,-2.830168 5.2052204,-3.116232 1.364697,-0.829982 2.917906,-1.7035832 4.176934,-2.7157226 C 18.657009,8.3800687 19.149722,8.045026 19.445226,7.5615325 19.836331,6.9216192 20.512558,6.1421356 20.222975,5.4503303 18.692345,1.7936922 17.527575,2.6063597 14.918847,2.9485791 10.365993,4.3534594 6.0510247,6.4164654 1.7374135,8.4180195 -0.57255034,9.4505718 1.699676,7.972917 3.4385427,9.9332109 4.2312846,10.826901 3.0305679,12.819325 3.8793898,11.617111 4.0421874,11.386536 4.1927205,11.147541 4.3493859,10.912756 4.7900018,10.058451 5.5921803,8.8079264 4.6834192,7.8173878 3.8894247,6.9519434 2.5696336,6.710014 1.4129308,6.5063978 0.96857493,6.4281769 -0.82190359,7.584469 -1.3004776,7.8900535 -0.07571028,9.0752794 0.83936029,10.703953 2.3738243,11.445731 2.9251246,11.712237 3.3801862,10.747805 3.8803339,10.394521 5.5030581,9.2482957 7.1358222,8.1056199 8.6077728,6.767106 3.8488114,2.605056 4.5756882,1.8353009 5.4962019,7.4042732 8.4400159,9.3623227 11.209116,5.199141 8.2653022,3.2410913 v 0 C 8.6082377,8.562414 9.2976371,7.8149002 5.2183384,3.0912747 3.9431766,4.296873 2.4465559,5.285007 1.0181703,6.2947629 0.543507,6.6303125 -0.45170545,6.7134713 -0.41147193,7.2933678 -0.29311809,8.9992336 0.80945304,10.487939 1.4199155,12.085225 1.5598103,11.991985 2.5230425,11.439659 2.4635362,11.394775 -0.54266319,9.1272409 0.16558636,11.088919 0.24792433,7.9605239 0.2497899,7.8896439 0.19938856,8.0937689 0.17512067,8.1603912 -0.5547675,9.2882811 -1.9296587,10.595813 -1.0115515,12.21283 0.33485664,14.584191 2.2662556,13.670455 3.8420616,12.953486 7.8054972,11.11415 11.770331,9.2363273 15.919088,7.8475093 17.539262,7.0189579 15.76541,8.1718914 15.242793,5.005602 15.177653,4.6109463 15.826757,4.4041419 15.920449,4.015274 15.988446,3.7330557 15.55294,4.4701798 15.327679,4.6532863 14.835067,5.0537112 14.308647,5.4120848 13.7764,5.7580892 13.022947,6.2478962 12.240819,6.6921141 11.473028,7.1591267 9.0529335,8.6057699 6.6308975,10.045943 4.2395174,11.539675 c -0.5076111,0.31707 -1.0257494,0.617954 -1.5221627,0.952283 -0.092961,0.06261 -0.2908441,0.134731 -0.240571,0.234902 0.7149747,1.424602 1.6176296,2.746998 2.4264441,4.120497 0.33371,-0.424297 0.070604,-0.109679 0.866167,-0.819322 1.6001947,-1.427376 3.2703812,-2.775447 5.0464692,-3.980664 2.458608,-1.57487 4.992387,-3.0513364 7.658803,-4.2492806 3.26357,-1.3598205 1.340493,-5.9752051 -1.923077,-4.6153845 z" />
    <path
       style="fill:#00ffff;stroke-width:0.264583"
       id="path34"
       d="M 8.2712723,9.2287253 C 11.794241,7.8655211 15.371811,6.645495 18.936983,5.3982209 22.274172,4.2306742 20.623012,-0.48882458 17.285822,0.67872215 v 0 C 13.629112,1.9580912 9.9590655,3.208292 6.3481952,4.6133408 3.0846257,5.9731616 5.0077025,10.588546 8.2712723,9.2287253 Z" />
    <path
       style="fill:#00ffff;stroke-width:0.264583"
       id="path35"
       d="m 28.144295,4.3826422 c -2.405504,1.2588684 -4.800182,2.5402489 -7.153771,3.8939453 -2.739976,1.5595968 -5.282923,3.4161235 -7.629698,5.5154075 -1.93416,1.885955 -3.6469155,3.98687 -5.3547895,6.076417 -1.4917451,1.715517 -2.8936555,3.488776 -4.1431077,5.388367 -1.1943411,1.759682 -2.06461,3.684639 -2.7865796,5.675817 -0.54346435,1.366694 -1.12690536,2.712892 -1.55717744,4.120801 -0.96020436,3.246228 -1.28930656,1.664382 4.20637714,2.229953 0.4729292,-4.307885 1.9809187,-8.443071 3.3844449,-12.519913 1.072851,-2.825348 2.377136,-5.582879 4.2092832,-8.00203 1.056161,-1.394546 1.419598,-1.681747 2.657388,-2.942086 2.193373,-2.069757 4.640204,-3.8631268 7.260939,-5.35476 1.499599,-0.8535202 2.457732,-1.2738026 4.012386,-2.0125071 2.751443,-1.2921323 5.643561,-2.1919054 8.618124,-2.78518 1.54129,-0.2836741 3.106118,-0.3869534 4.670231,-0.4267804 0.788178,-0.042188 1.560841,-0.00933 2.335403,0.1347658 0.02413,0.00792 0.07849,0.048419 0.0724,0.02376 -1.180428,-4.7834664 0.102674,-4.7661423 -2.293329,-3.7649019 -0.56624,0.23662056 -2.341809,0.95612857 -2.807295,1.14526919 -3.315298,1.35778681 -6.6411,2.69375391 -9.877699,4.23216021 -2.808124,1.4615554 -3.716011,1.86345 -0.101799,5.6866482 0.16868,0.178433 2.676439,-0.7688215 2.762093,-0.7991033 2.87932,-1.1118453 5.791197,-2.1385334 8.797697,-2.8470034 1.171083,-0.252807 2.358602,-0.4037896 3.555384,-0.4384985 -0.368128,-0.3975253 0.341,0.1028586 0.318664,-9.789e-4 C 40.948377,4.9780938 41.037298,3.1595951 40.18086,1.7241885 39.899034,1.2518439 39.095926,1.9069643 38.556448,2.0142036 37.027151,2.3182032 35.891882,2.6037873 34.357762,2.9677458 30.917893,3.7846341 32.073148,8.6493423 35.513017,7.832454 v 0 c 1.616345,-0.3842406 2.362031,-0.5763475 3.94049,-0.8993802 0.424601,-0.086895 1.132041,0.1687883 1.277991,-0.2392981 1.856716,-5.1915305 2.176608,-5.1026449 0.09458,-5.07817 -1.533327,0.049916 -3.056216,0.2392538 -4.555305,0.5713337 -3.18348,0.7607033 -6.278904,1.8172242 -9.327936,3.0043398 -0.350419,0.1274998 -0.707253,0.238584 -1.051256,0.3824994 -0.06361,0.02661 -0.187553,0.061113 -0.164085,0.1259448 0.508019,1.4033905 1.27895,2.7094569 1.707961,4.1389802 0.04597,0.1531811 -0.260003,0.1878054 -0.376613,0.2972554 -0.296572,0.278357 2.293154,-1.8601814 1.056971,-0.6097013 3.148054,-1.4990548 6.387581,-2.7910665 9.611952,-4.1150743 1.349899,-0.5485315 2.740528,-1.0536071 4.052594,-1.6912257 0.315666,-0.1534033 0.900155,-0.1516141 0.925716,-0.5016497 0.335455,-4.5936966 0.899832,-4.3295614 -0.944732,-4.7640254 -1.110223,-0.1964033 -2.22631,-0.2688937 -3.353535,-0.2124746 -1.851874,0.049411 -3.703958,0.1800932 -5.527424,0.5236075 -3.373694,0.68572048 -6.660365,1.69955398 -9.781035,3.1727994 -1.784094,0.8521534 -2.74527,1.2710719 -4.474418,2.2632565 -2.975803,1.7075141 -5.748985,3.7617902 -8.231338,6.1305016 -1.493826,1.546321 -1.9203079,1.886673 -3.1936504,3.595517 -2.083508,2.796099 -3.5953162,5.957122 -4.8181163,9.209777 -1.60067341,4.658376 -3.35321577,9.414066 -3.6512927,14.369291 1.59147521,0.482179 3.1401406,1.13929 4.7744256,1.446543 0.1806323,0.03396 0.1478079,-0.336796 0.2117161,-0.509125 0.2354355,-0.634851 0.3610309,-1.310417 0.5897782,-1.94769 0.3911108,-1.324679 0.9894314,-2.570395 1.4716874,-3.862763 0.5869313,-1.626659 1.2821052,-3.201313 2.2659054,-4.634799 1.1486462,-1.757694 2.4611467,-3.379501 3.8342557,-4.967155 1.544969,-1.892478 3.095367,-3.793862 4.82525,-5.521217 2.075925,-1.877387 4.351348,-3.508616 6.781843,-4.900681 2.267438,-1.307034 4.578213,-2.53781 6.894968,-3.754893 3.162279,-1.5811386 0.926211,-6.0532745 -2.236068,-4.4721358 z" />
    <path
       style="fill:#00ffff;stroke-width:0.264583"
       id="path36"
       d="m 195.39298,6.1115304 c 1.56677,-0.3650464 3.1848,-0.1513337 4.76244,0.017857 1.30057,0.1856539 2.67569,0.3701026 3.75798,1.1700213 0.53068,0.3931364 0.69931,1.0264288 0.95816,1.6060118 0.4374,0.9061138 0.84949,1.8222535 1.27928,2.7320495 0.16347,0.353577 0.0774,0.131775 0.0915,0.415969 0.0144,0.08043 -0.009,0.479363 0.0101,0.165122 1.44821,-0.490832 2.92959,-0.892976 4.34465,-1.472497 0.0904,-0.03703 -0.11576,-0.157451 -0.17508,-0.235097 -0.0884,-0.115736 -0.17717,-0.231235 -0.26808,-0.34502 -0.32657,-0.4087295 -0.64861,-0.8198968 -0.97281,-1.2306764 -1.03683,-1.5112251 -2.42783,-2.6992067 -3.77464,-3.9185411 -1.05704,-0.9858322 -2.06657,-2.0205342 -3.11885,-3.0120922 -0.34102,-0.3643633 -0.71998,-0.6227272 -1.13655,-0.8961782 -0.98817,-0.44776824 -2.09747,-0.52402954 -3.16557,-0.6205666 -1.24032,-0.10686254 -2.47066,0.0688792 -3.69333,0.25565168 -1.40334,0.44645142 -2.20341,0.49406322 -2.31698,3.03415932 -0.0345,0.7709019 0.78163,1.3426019 1.29411,1.9195262 0.0571,0.064247 2.29798,1.4363543 2.51844,1.5857063 2.01333,1.3139367 3.64286,3.045565 5.15039,4.895335 1.26852,1.734344 2.06578,3.755837 2.77569,5.769368 0.53523,1.497079 0.9696,3.023697 1.19972,4.597247 0.21521,1.422554 0.42439,2.844559 0.60062,4.272638 0.43388,3.508809 5.39609,2.895206 4.9622,-0.613603 v 0 c -0.18234,-1.471705 -0.39691,-2.93752 -0.61858,-4.403627 -0.29047,-1.888134 -0.78154,-3.72978 -1.43261,-5.526909 -0.91282,-2.552331 -1.95477,-5.094627 -3.61768,-7.2618216 -1.82311,-2.2198097 -3.80735,-4.2910177 -6.22613,-5.8753869 -0.87247,-0.5851007 -1.07978,-0.7473322 -1.94165,-1.246206 -0.11419,-0.066097 -0.38306,-0.3078854 -0.35279,-0.1794628 0.12002,0.5093365 0.76416,0.9199835 0.64751,1.4301035 -0.54467,2.3818744 -0.71168,2.3255737 -1.88591,2.5453946 0.84592,-0.1297112 1.69307,-0.2831143 2.55257,-0.2129126 0.0868,0.00382 1.91626,0.3141884 1.19304,0.044995 -0.80377,-0.5850966 -0.0537,-0.035699 0.0649,0.1258914 1.07693,1.0143226 2.10719,2.0759285 3.19289,3.0804522 1.14181,1.0324245 2.33889,2.0185802 3.20569,3.3102252 0.38532,0.487269 0.77826,0.970283 1.15516,1.463973 0.0679,0.08894 0.0904,0.288344 0.20066,0.269115 1.56015,-0.272146 3.07977,-0.739967 4.61966,-1.10995 0.0208,-0.314945 0.0157,-0.630844 -0.002,-0.945923 -0.0573,-0.76548 -0.19771,-1.523691 -0.55915,-2.2106177 -0.4148,-0.8775562 -0.81313,-1.7606962 -1.2347,-2.6350603 -0.64638,-1.4467993 -1.37006,-2.8151129 -2.73535,-3.7172727 -1.87147,-1.2112986 -3.80384,-1.752108 -6.01697,-1.9914621 -2.11906,-0.22394699 -4.27751,-0.42721578 -6.37619,0.073136 -3.45135,0.766965 -2.36669,5.6479002 1.08465,4.8809353 z" />
    <path
       style="fill:#00ffff;stroke-width:0.264583"
       id="path37"
       d="m 192.67983,294.94546 c 2.35657,-1.20775 4.57317,-2.64525 6.73603,-4.16661 2.54662,-1.77705 4.91786,-3.77626 7.07831,-6.00408 0.69981,-0.74282 1.27064,-1.59361 1.98413,-2.32368 0.15941,-0.23275 0.39242,-0.42952 0.47821,-0.69826 0.15739,-0.49302 0.23325,-1.01724 0.23464,-1.53477 0.002,-0.59121 -0.66503,-1.58416 -1.11729,-1.83737 -0.50567,-0.28313 -1.10669,-0.34457 -1.66003,-0.51684 -0.49168,0.10062 -0.99807,0.14576 -1.47505,0.30187 -1.92436,0.62989 -3.62707,1.95789 -5.30803,3.03553 -1.38315,0.88673 -2.775,1.75983 -4.16121,2.64179 -2.46106,1.48249 -4.88345,3.06168 -7.47136,4.32146 -1.16214,0.56571 -1.97508,0.8612 -3.16834,1.33245 -1.10776,0.41843 -2.23909,0.77083 -3.38332,1.07426 -0.26268,0.0696 -1.06072,0.23542 -0.79891,0.16256 0.71763,1.28997 1.43525,2.57992 2.15288,3.8699 -0.0546,0.11142 -0.28249,0.37039 -0.1638,0.33425 0.3561,-0.10848 0.63957,-0.38116 0.95687,-0.57582 0.42396,-0.26008 0.84604,-0.52326 1.26685,-0.7884 2.99497,-1.88712 0.0212,-0.0471 3.3418,-2.08698 4.63752,-2.90322 8.90737,-6.34103 13.13011,-9.80689 1.9426,-1.67272 3.92084,-3.3347 5.54867,-5.32902 0.71061,-0.87062 0.94295,-1.27217 1.52885,-2.16993 0.39051,-0.68697 0.77715,-1.38861 1.03644,-2.13863 0.0584,-0.16904 0.30334,-0.42534 0.14888,-0.51557 -4.45492,-2.6023 -3.43741,-3.11994 -5.32014,-1.31386 -3.13953,3.01331 -6.44707,5.84311 -9.81785,8.59268 -2.77168,2.32569 -5.72395,4.41749 -8.69736,6.47306 -1.77012,1.13779 -3.63841,2.13151 -5.51503,3.08406 -2.66101,1.31599 -3.28888,1.24183 0.78943,5.23979 0.28099,0.27545 0.71104,-0.33724 1.06656,-0.50586 3.48814,-1.84851 6.55784,-4.35967 9.61384,-6.83189 2.38337,-2.08026 4.70589,-4.26444 6.66885,-6.75544 1.00901,-1.28043 1.6322,-2.2528 2.53765,-3.59249 1.98109,-3.06374 3.86615,-6.18776 5.72159,-9.32871 0.18339,-0.31294 0.36718,-0.62566 0.55016,-0.93884 0.13527,-0.23151 0.26616,-0.46562 0.40459,-0.69527 0.0725,-0.12026 0.34047,-0.43822 0.22801,-0.35418 -0.16138,0.12063 -0.18997,0.5315 -0.38145,0.46885 -4.51115,-1.4762 -3.63576,-3.46826 -4.33347,-1.41975 -1.54536,3.86979 -3.14636,7.71641 -4.78428,11.54781 -1.63556,4.02654 -3.83767,7.77298 -5.89882,11.5869 -1.68078,3.11047 2.71807,5.48746 4.39885,2.37699 v 0 c 2.13319,-3.94817 4.40459,-7.83058 6.0975,-11.99851 1.71299,-4.0073 3.40273,-8.02579 4.97959,-12.08887 0.69742,-2.51215 0.90885,-1.81446 -3.72031,-3.79485 -0.26247,-0.11229 -0.39885,0.41011 -0.57463,0.63505 -0.50846,0.65063 -0.78901,1.46458 -1.27076,2.1317 -1.80454,3.05505 -3.63783,6.09358 -5.56157,9.07543 -0.75166,1.11652 -1.39282,2.11077 -2.22191,3.17365 -1.75375,2.2483 -3.8513,4.20423 -5.98475,6.08362 -2.77403,2.24525 -5.55013,4.54049 -8.70185,6.2452 -0.14343,0.0805 -0.48846,0.0875 -0.43028,0.24132 1.21899,3.22231 3.56385,3.50727 1.9166,4.52848 -0.161,0.0998 0.33614,-0.17489 0.50698,-0.2567 0.21793,-0.10438 0.4345,-0.21156 0.65176,-0.31731 2.07377,-1.05783 4.14108,-2.15395 6.09044,-3.42731 3.08246,-2.13095 6.14047,-4.30284 9.01515,-6.71198 3.47548,-2.83681 6.88661,-5.75529 10.12374,-8.86383 0.21254,-0.20532 0.83057,-0.39211 0.63762,-0.61592 -3.80422,-4.41256 -3.05176,-3.84352 -4.16797,-1.73453 -0.38064,0.59558 -0.63281,1.02148 -1.08645,1.58504 -1.44465,1.79467 -3.23522,3.26117 -4.96543,4.76506 -4.04634,3.32251 -8.13453,6.62321 -12.57531,9.41147 -3.3917,2.08489 -0.43102,0.25141 -3.36671,2.10238 -0.68779,0.43368 -1.41037,0.81333 -2.07827,1.27707 -0.46535,0.32308 -1.42584,0.46005 -1.35759,1.02245 0.18296,1.50773 1.31978,2.7359 1.97967,4.10385 2.04759,-0.11991 3.98587,-0.95451 5.91165,-1.58777 1.46899,-0.58478 2.2097,-0.84899 3.65483,-1.55622 2.70793,-1.3252 5.24967,-2.97011 7.8255,-4.52692 2.00001,-1.27249 3.99125,-2.55892 5.9906,-3.83212 0.45293,-0.28842 0.90433,-0.58002 1.37003,-0.84733 0.27127,-0.15573 0.58441,-0.23862 0.83882,-0.42058 0.0404,-0.0289 -0.0734,-0.0671 -0.11009,-0.10062 -0.39882,-0.16698 -0.83853,-0.25842 -1.19645,-0.50096 -0.97616,-0.66151 -0.87146,-1.88709 -0.55432,-2.85864 0.0677,-0.20735 0.26049,-0.34988 0.39073,-0.52483 -0.70648,0.73536 -1.32248,1.54533 -1.98199,2.32146 -1.93702,2.00718 -4.07645,3.79386 -6.3637,5.39271 -2.01651,1.42158 -4.08492,2.76048 -6.28555,3.884 -3.09061,1.71699 -0.6624,6.08777 2.42822,4.37079 z" />
    <path
       style="fill:#00ffff;stroke-width:0.264583"
       id="path38"
       d="m 205.03654,267.50653 c -0.5578,5.85904 -1.59407,11.64391 -2.9152,17.37426 -0.19905,0.79753 -0.4153,1.59096 -0.59714,2.3926 -0.3507,1.54601 -0.74428,3.21273 -0.28565,4.78814 0.14577,0.50072 0.76369,1.50267 0.31756,0.76406 -0.1301,-0.45426 -0.0348,0.21577 0.0223,0.29694 0.45256,0.64302 0.85404,1.3792 1.51065,1.81182 0.43421,0.28606 1.67643,0.70612 1.54673,0.20259 -1.33039,-5.16515 -1.53662,-4.72099 -2.85675,-3.43493 -0.16232,0.15465 -0.32393,0.31007 -0.48697,0.46395 -1.33462,1.2597 0.38829,-0.82532 1.91515,0.19457 2.95459,1.97356 0.34555,3.14534 1.46125,2.62104 0.19534,0.0199 0.2452,-0.005 -0.13553,0.27697 -0.277,0.20487 -0.51258,0.11351 -0.41903,0.18801 0.0948,0.0755 0.22196,0.11721 0.34309,0.1201 0.63921,0.0151 1.27801,-0.0443 1.91702,-0.0664 0.62101,-0.48556 1.33724,-0.86932 1.86304,-1.45664 0.5321,-0.59436 1.10863,-2.1744 1.40355,-2.95256 0.1266,-0.33407 0.22684,-0.67818 0.36447,-1.00783 0.038,-0.0911 0.22882,-0.32014 0.16025,-0.2491 -0.28134,0.29149 -0.53438,0.60902 -0.80157,0.9135 -0.91361,-0.0821 -1.82721,-0.16415 -2.74082,-0.24622 2.43827,2.56024 6.059,-0.888 3.62072,-3.44824 v 0 c -1.06799,-0.24418 -2.13599,-0.48837 -3.20399,-0.73255 -0.43049,0.39023 -0.91735,0.72612 -1.29148,1.1707 -0.4341,0.51581 -0.89153,2.08786 -1.12764,2.7522 -0.0636,0.17886 -0.32961,0.43024 -0.17591,0.54163 0.20086,0.1456 0.4874,-0.0928 0.7311,-0.1392 0.29694,0.0623 0.58755,0.19582 0.89082,0.18687 0.20588,-0.006 -0.38622,-0.14589 -0.58605,-0.19581 -0.38857,-0.0971 -0.77639,-0.22469 -1.17642,-0.24453 -1.50111,-0.0745 -2.72272,0.5697 -3.69701,1.6728 -0.96239,1.50693 -1.99711,2.52407 0.25021,4.70868 1.56111,1.51755 3.49568,-0.62087 4.4422,-1.52132 1.92234,-1.92749 -0.37759,0.74475 -1.27884,-5.07768 -0.0632,-0.40825 0.89021,-0.0114 1.21512,0.24371 0.54734,0.42976 0.82847,1.1184 1.23704,1.68175 0.003,0.004 -0.006,0.008 -0.009,0.0116 -0.0427,-0.25146 -0.0854,-0.50292 -0.12814,-0.75436 -0.11183,-0.2817 -0.1945,-0.57679 -0.33549,-0.84507 -0.0657,-0.12499 0.0994,0.26884 0.10677,0.40984 0.002,0.0387 -0.0774,0.1221 -0.0808,0.0835 -0.15214,-1.69875 0.74158,-3.36827 0.96765,-5.00335 1.35855,-5.9083 2.43152,-11.87182 3.00843,-17.91189 0.4131,-3.51131 -4.55266,-4.09552 -4.96575,-0.5842 z" />
    <path
       style="fill:#00ffff;stroke-width:0.264583"
       id="path39"
       d="m 4.5331289,282.89734 c 0.6161387,1.91447 1.5210994,3.72218 2.5230781,5.46042 1.0639671,1.81374 2.3795357,3.43106 3.795987,4.97522 1.252004,1.25294 2.684149,2.30439 4.195839,3.21961 0.508959,0.2821 0.540804,0.30665 1.022273,0.55044 0.08859,0.0449 0.34504,0.19277 0.267946,0.13017 -0.140829,-0.11432 -0.518776,-0.11538 -0.461929,-0.28762 1.580747,-4.78981 3.585097,-3.81749 1.537515,-4.62156 -1.071237,-0.46572 -2.171079,-0.88628 -3.175568,-1.49132 -0.578455,-0.34841 -1.144193,-0.8037 -1.678399,-1.20989 -1.668968,-1.29236 -3.0596811,-2.89182 -4.327934,-4.56832 -0.6381565,-0.8894 -1.2011049,-1.82817 -1.8124411,-2.73498 -1.3246666,1.01717 -2.8003447,1.86328 -3.9739995,3.05152 -0.083276,0.0843 2.5719301,3.11627 2.7242986,3.27949 1.766353,1.64094 3.637762,3.18087 5.767379,4.32287 0.556516,0.28075 2.855601,1.60189 3.390446,1.10958 0.931127,-0.85709 1.405655,-2.10487 2.108482,-3.1573 -0.196752,-0.39883 -0.364169,-0.81351 -0.590257,-1.19647 -0.792611,-1.34252 -2.70973,-2.85991 -3.889843,-3.88038 -1.9875213,-1.70503 -3.4433511,-3.91292 -4.9337048,-6.04144 -0.4973318,-0.79241 -1.0915999,-1.53734 -1.2537938,-2.47441 -0.9881314,-3.39463 -5.78888037,-1.99721 -4.80074897,1.39742 v 0 c 0.15415417,0.46765 0.26896747,0.95014 0.46246247,1.40293 0.3479308,0.81415 1.0287629,1.80935 1.4968523,2.54272 1.728038,2.46592 3.4454224,4.99163 5.7592097,6.95547 0.7766135,0.67101 1.5733081,1.32631 2.2920491,2.06084 0.150419,0.15373 0.2944,0.3138 0.434639,0.47686 0.108337,0.12597 0.221769,0.53012 0.310691,0.38976 0.111276,-0.17563 -0.11939,-0.39833 -0.179085,-0.59748 0.725123,-0.94716 1.275692,-2.0582 2.17537,-2.84144 0.313876,-0.27326 1.602553,0.47196 0.645599,-0.0103 -0.164365,-0.0828 -0.328655,-0.16582 -0.492606,-0.24948 -0.206854,-0.10554 -0.413203,-0.21209 -0.619805,-0.31813 -1.661947,-0.82865 -3.034788,-2.1218 -4.4391761,-3.31505 -0.7224006,-0.7626 -1.3658551,-1.56149 -2.0104515,-2.38897 -0.066117,-0.0849 -0.1079653,-0.29835 -0.2040953,-0.25003 -1.4920018,0.74985 -2.8837752,1.68439 -4.325663,2.52661 0.664217,0.9851 1.2753278,2.00623 1.9781148,2.96619 1.5541683,2.03541 3.2564311,3.97203 5.2990162,5.53519 0.9491849,0.71017 1.3176219,1.02489 2.3452149,1.63414 1.17296,0.69546 2.448345,1.1942 3.697166,1.73059 2.07782,0.80941 1.114723,0.65797 3.464724,-3.89228 0.04195,-0.0812 -1.360608,-0.77087 -1.441249,-0.82561 -1.108019,-0.65233 -2.142663,-1.42997 -3.080302,-2.31018 -1.173012,-1.27818 -2.275501,-2.60115 -3.156184,-4.10546 -0.842157,-1.4369 -1.58936,-2.94386 -2.1037007,-4.53102 -1.1180339,-3.35412 -5.8614503,-1.77297 -4.7434164,1.58112 z" />
  </g>
</svg>
